<?xml version="1.0" encoding="UTF-8"?>
<svg version="1.1" xmlns="http://www.w3.org/2000/svg" width="1024" height="1024">
<path d="M0 0 C337.92 0 675.84 0 1024 0 C1024 337.92 1024 675.84 1024 1024 C686.08 1024 348.16 1024 0 1024 C0 686.08 0 348.16 0 0 Z " fill="#E5E7E9" transform="translate(0,0)"/>
<path d="M0 0 C16.25738534 7.48453212 24.05723305 21.66583418 30.10546875 37.9296875 C33.75143702 48.54415965 34.23565 59.8172454 35.10546875 70.9296875 C35.66492188 70.32382812 36.224375 69.71796875 36.80078125 69.09375 C53.04440238 52.11890477 73.60324188 40.49712521 97.51171875 39.69140625 C109.38465916 39.48160953 119.85940855 39.89264025 131.10546875 43.9296875 C131.10546875 44.9196875 131.10546875 45.9096875 131.10546875 46.9296875 C128.82421875 48.953125 128.82421875 48.953125 125.60546875 51.3046875 C124.40589256 52.19568674 123.20805384 53.08902868 122.01171875 53.984375 C121.37492187 54.4597168 120.738125 54.93505859 120.08203125 55.42480469 C116.6881017 58.00881923 113.40159768 60.72279287 110.10546875 63.4296875 C104.12190548 68.32781014 98.04904094 73.0809316 91.89453125 77.76171875 C89.495921 79.6261847 87.19460821 81.54506131 84.91796875 83.5546875 C82.10546875 85.9296875 82.10546875 85.9296875 80.10546875 85.9296875 C80.10546875 86.5896875 80.10546875 87.2496875 80.10546875 87.9296875 C81.19730469 88.03410156 82.28914063 88.13851562 83.4140625 88.24609375 C127.60093057 93.83850938 169.91325023 122.59942599 198.10546875 155.9296875 C200.13979401 158.57146386 202.13304846 161.24144565 204.10546875 163.9296875 C204.41661621 163.34179443 204.72776367 162.75390137 205.04833984 162.14819336 C215.31228948 142.83501841 226.21011031 125.43967365 241.015625 109.2421875 C242.78903716 107.27983236 244.4869712 105.28307341 246.16796875 103.2421875 C249.46472123 99.37950748 253.2248201 96.18996035 257.10546875 92.9296875 C257.9459375 92.18976563 258.78640625 91.44984375 259.65234375 90.6875 C302.45934839 53.67481367 357.39641964 38.579878 413.1875 42.203125 C437.57756765 44.29825939 462.10244642 51.28040981 484.10546875 61.9296875 C484.85296387 62.29046387 485.60045898 62.65124023 486.37060547 63.02294922 C505.95084273 72.60407672 522.87182791 85.22388359 538.85546875 99.9921875 C539.46986816 100.5579248 540.08426758 101.12366211 540.71728516 101.70654297 C571.04034041 130.11549114 590.25537028 169.7427615 599.10546875 209.9296875 C599.27062988 210.66509766 599.43579102 211.40050781 599.60595703 212.15820312 C605.33293356 239.14073165 603.98214694 270.1248883 598.10546875 296.9296875 C597.9235498 297.77644043 597.74163086 298.62319336 597.55419922 299.49560547 C589.06809975 337.72476314 570.06185756 371.74106121 543.10546875 399.9296875 C542.23148438 400.85652344 541.3575 401.78335937 540.45703125 402.73828125 C503.42697675 441.0171499 449.44103594 462.23062393 396.61914062 463.21728516 C339.81314891 463.64257957 286.59614965 440.22211043 246.35546875 400.6171875 C238.56028832 392.81490045 231.71210052 384.52166565 225.33789062 375.52929688 C224.04356008 373.84933378 222.63444162 372.39652504 221.10546875 370.9296875 C220.86538086 371.46634033 220.62529297 372.00299316 220.37792969 372.5559082 C212.20925609 390.65109556 202.54626972 407.4165496 190.10546875 422.9296875 C189.31269531 423.92613281 188.51992188 424.92257812 187.703125 425.94921875 C175.29698474 441.23038748 161.20274037 454.61298819 145.10546875 465.9296875 C144.53328613 466.33590332 143.96110352 466.74211914 143.37158203 467.16064453 C119.43718243 483.94256325 92.42839883 494.41712882 64.10546875 500.9296875 C63.37521484 501.09839355 62.64496094 501.26709961 61.89257812 501.44091797 C16.88444976 511.54056803 -32.16288633 506.78268111 -74.89453125 489.9296875 C-75.74853516 489.59598145 -76.60253906 489.26227539 -77.48242188 488.91845703 C-114.12604417 474.41650688 -146.30156379 450.54267751 -169.89453125 418.9296875 C-170.30912598 418.38650879 -170.7237207 417.84333008 -171.15087891 417.28369141 C-206.23983262 371.26333951 -218.48727254 312.61622645 -211.9453125 255.71582031 C-206.11126234 212.91408692 -188.65950017 173.3509722 -158.89453125 141.9296875 C-158.01410156 140.98480469 -157.13367188 140.03992188 -156.2265625 139.06640625 C-130.56657891 112.0888312 -94.7121084 95.51675582 -58.5078125 88.65625 C-55.07858433 88.13092846 -55.07858433 88.13092846 -52.89453125 86.9296875 C-68.67089197 74.51503458 -84.7326314 62.52872505 -101.109375 50.91796875 C-103.39630952 49.28536052 -105.65654227 47.62840203 -107.89453125 45.9296875 C-88.51109416 36.53442152 -64.75608403 38.43996445 -44.76953125 45.1171875 C-27.96963859 51.56680146 -15.36622219 60.98035734 -2.89453125 73.9296875 C-1.44656523 54.84871308 -10.67762629 39.28176132 -19.73046875 23.13671875 C-22.2025881 18.44964682 -22.5170664 14.12340929 -21.89453125 8.9296875 C-17.65236616 -0.0637025 -9.2639973 -3.42555366 0 0 Z " fill="#163A3E" transform="translate(316.89453125,253.0703125)"/>
<path d="M0 0 C337.92 0 675.84 0 1024 0 C1024 337.92 1024 675.84 1024 1024 C686.08 1024 348.16 1024 0 1024 C0 686.08 0 348.16 0 0 Z M105.375 119.8125 C104.23838398 121.1988909 103.11488323 122.59607298 102 124 C101.17113281 124.99257812 100.34226563 125.98515625 99.48828125 127.0078125 C73.80823682 158.16572089 65.50413965 193.62940633 65.61231995 233.24333191 C65.60813975 235.75463117 65.60265849 238.26592854 65.59600013 240.77722245 C65.58460814 246.20603019 65.58238499 251.63471792 65.58855057 257.06353188 C65.59769492 265.1370266 65.5895671 273.21044223 65.57825933 281.28393092 C65.55865028 295.71013346 65.55623397 310.13629996 65.56145453 324.56251265 C65.56602181 337.19067507 65.56539997 349.81882328 65.55961418 362.44698524 C65.5588573 364.14465326 65.55810132 365.84232128 65.55734624 367.5399893 C65.55620097 370.09862335 65.55505108 372.65725741 65.55388699 375.21589146 C65.54319063 398.98667006 65.53844777 422.75744395 65.54635715 446.52822399 C65.54665433 447.42322634 65.5469515 448.3182287 65.54725768 449.24035233 C65.5497063 456.5071444 65.55231805 463.77393642 65.55494181 471.04072843 C65.56504057 499.37393587 65.55669237 527.70708403 65.53344727 556.0402832 C65.50733607 587.9180446 65.49453714 619.79577032 65.50163502 651.6735428 C65.50235101 655.07700717 65.5030254 658.48047154 65.50367546 661.88393593 C65.50384527 662.72187291 65.50401508 663.5598099 65.50419003 664.42313891 C65.50648655 677.03507339 65.49854699 689.64697458 65.48538399 702.2589016 C65.47042779 716.61400099 65.46968941 730.96902274 65.4874549 745.32412054 C65.49697108 753.34210149 65.49567974 761.35990098 65.47822021 769.37786956 C65.46639329 775.38835305 65.4758173 781.39861642 65.49304258 787.40909461 C65.49678211 789.82279966 65.49394059 792.23652701 65.48343093 794.65021207 C65.31498429 836.33747123 76.2424777 874.94723149 105 906 C105.49870605 906.54253418 105.99741211 907.08506836 106.51123047 907.64404297 C131.08167379 934.07529614 168.04933311 952.71924852 204.48059839 954.09357784 C207.21201304 954.13109164 209.94184487 954.13844671 212.67351532 954.13422108 C214.24044719 954.13774942 214.24044719 954.13774942 215.83903426 954.14134905 C219.33862291 954.14800476 222.83817413 954.14758186 226.33776855 954.14717102 C228.87272113 954.15047179 231.40767318 954.15419781 233.94262457 954.1583125 C240.17858789 954.16726792 246.41454013 954.17155631 252.650509 954.17383147 C260.1226658 954.17680018 267.59481325 954.18550161 275.06696513 954.19424575 C293.12804179 954.21506608 311.18912005 954.22555698 329.2502059 954.23437535 C337.80133617 954.23858616 346.35246573 954.24380763 354.90359541 954.24905988 C384.19716512 954.26694988 413.49073503 954.28194328 442.78430939 954.28938007 C444.62260333 954.28985482 446.46089727 954.29033071 448.29919121 954.29080774 C449.66658456 954.2911623 449.66658456 954.2911623 451.06160202 954.29152403 C455.67990265 954.29272518 460.29820328 954.29394064 464.91650391 954.29516602 C465.83300689 954.29540617 466.74950988 954.29564632 467.69378569 954.29589374 C497.38452934 954.30378023 527.07523296 954.32719873 556.76595914 954.35972196 C588.18413663 954.39407433 619.60229073 954.4137363 651.02048731 954.41702431 C654.47439735 954.41744182 657.92830738 954.41792138 661.38221741 954.41844749 C662.65781706 954.41863228 662.65781706 954.41863228 663.9591864 954.4188208 C677.60465573 954.4211463 691.25007834 954.43677001 704.89553106 954.45728934 C718.6319837 954.47761653 732.36838063 954.48299224 746.10484552 954.47351871 C754.24921329 954.46833014 762.39339465 954.47405486 770.53773532 954.49605338 C776.64447901 954.5112907 782.75103739 954.50522707 788.85778052 954.49138286 C791.30949103 954.48902021 793.76121996 954.49325951 796.21290249 954.50521151 C824.53110482 954.63458177 850.34857664 950.22234706 876 938 C877.64935547 937.21689453 877.64935547 937.21689453 879.33203125 936.41796875 C913.60693319 919.04807393 939.24165714 887.08017008 951.359375 850.99121094 C957.81938236 830.91201123 958.29672007 810.82752504 958.26069641 789.91247559 C958.26372182 787.40601408 958.26761325 784.89955351 958.27228898 782.39309454 C958.28039704 776.97193835 958.28238387 771.55083497 958.27878571 766.12967491 C958.27344913 758.06784572 958.27960343 750.00605273 958.28786864 741.94422747 C958.30306417 726.70522465 958.30481839 711.46623852 958.30234561 696.22722971 C958.30050933 684.45769273 958.30227957 672.68816118 958.30657005 660.91862488 C958.30717247 659.22467696 958.30777366 657.53072904 958.30837366 655.83678111 C958.30928096 653.28385383 958.31018963 650.73092656 958.31110601 648.17799928 C958.31952853 624.46044501 958.32387598 600.74289278 958.31969929 577.02533722 C958.31954291 576.13228326 958.31938654 575.2392293 958.31922542 574.3191131 C958.3184197 569.79326589 958.31757392 565.26741869 958.31671212 560.74157149 C958.31654103 559.84280078 958.31636994 558.94403007 958.31619367 558.01802389 C958.31584701 556.20049537 958.31549848 554.38296686 958.31514808 552.56543835 C958.30978991 524.27945309 958.31772691 495.99349899 958.33618164 467.70751953 C958.35691432 435.89318585 958.36762213 404.07887147 958.36360615 372.26453066 C958.36321083 368.87014548 958.36284928 365.4757603 958.36250877 362.08137512 C958.36241804 361.2456534 958.36232731 360.40993168 958.36223383 359.54888506 C958.3610698 346.95487905 958.36770114 334.3608926 958.37832069 321.76689148 C958.39038936 307.44015487 958.39191228 293.11346124 958.37953053 278.78672397 C958.37291861 270.778623 958.3744944 262.7706249 958.38811904 254.76253223 C958.3973762 248.77003423 958.39080618 242.77766016 958.37827124 236.7851637 C958.37562724 234.37086186 958.37798144 231.95654791 958.38600711 229.54225796 C958.42778191 216.03149315 957.78414819 203.23870799 955 190 C954.79661414 189.01267081 954.59322828 188.02534162 954.38367921 187.00809336 C946.05655589 148.03492781 920.55029024 116.80253216 887.9921875 94.984375 C858.19503869 76.55828298 825.53072195 72.84876681 791.33306885 72.85282898 C788.81116325 72.84952594 786.28925818 72.84579945 783.76735377 72.8416875 C777.57918795 72.83275404 771.39103324 72.82844795 765.20286186 72.82616853 C757.78469038 72.82319338 750.36652826 72.81448842 742.94836172 72.80575425 C725.02321657 72.78496297 707.09806983 72.77444866 689.17291544 72.76562465 C680.68462351 72.76141075 672.19633228 72.7561898 663.70804094 72.75094012 C634.62261918 72.73305503 605.53719721 72.71806106 576.45177078 72.71061993 C574.62762929 72.71014518 572.80348781 72.70966929 570.97934632 72.70919226 C570.07478718 72.70895589 569.17022804 72.70871951 568.23825802 72.70847597 C563.65574623 72.70727484 559.07323444 72.70605937 554.49072266 72.70483398 C553.58133058 72.70459383 552.67193851 72.70435368 551.7349891 72.70410626 C522.26498476 72.69621721 492.79502071 72.67279088 463.32503395 72.64027804 C432.13025436 72.60592547 400.93549834 72.58626383 369.74069953 72.58297569 C366.3115665 72.58255818 362.88243349 72.58207863 359.45330048 72.58155251 C358.18687873 72.58136772 358.18687873 72.58136772 356.8948727 72.5811792 C343.35004503 72.57885409 329.80526444 72.56323304 316.2604535 72.54271066 C302.62754802 72.52238362 288.99469868 72.51700776 275.36178085 72.52648129 C267.27960203 72.53166938 259.19761106 72.5259473 251.11545954 72.50394662 C245.05517413 72.48870747 238.9950956 72.49477408 232.93479916 72.50861714 C230.50205059 72.51097946 228.06928345 72.50674227 225.63656309 72.49478849 C180.6898265 72.28782178 136.28620699 85.28637859 105.375 119.8125 Z " fill="#F7F6F6" transform="translate(0,0)"/>
<path d="M0 0 C1.12019531 0.54527344 2.24039063 1.09054687 3.39453125 1.65234375 C37.95256374 19.41191305 62.75818294 50.82358161 74.60546875 87.51171875 C75.07249645 89.00713219 75.5376003 90.50314906 76 92 C76.32613281 93.01707031 76.65226562 94.03414063 76.98828125 95.08203125 C87.96303984 133.52182674 81.90944104 176.80931717 63.04443359 211.69311523 C56.75042848 222.87428543 48.79503594 232.70766801 40 242 C39.12988281 242.94617188 38.25976562 243.89234375 37.36328125 244.8671875 C29.48733773 253.24008348 20.62088298 259.7544626 11 266 C10.40993164 266.38671875 9.81986328 266.7734375 9.21191406 267.171875 C-22.42268646 287.55984872 -62.74420345 291.88572094 -99.0625 284.6875 C-138.11648093 275.82167005 -172.8026582 251.98583015 -194.22558594 218.05908203 C-201.98734588 205.4155339 -207.7614846 192.01383844 -211.8125 177.75 C-212.0074707 177.06631348 -212.20244141 176.38262695 -212.40332031 175.67822266 C-215.71436225 163.30707215 -216.37148958 151.09736163 -216.3125 138.375 C-216.31100952 137.58074615 -216.30951904 136.78649231 -216.3079834 135.96817017 C-216.26788196 124.08303199 -215.75900863 112.60727003 -213 101 C-212.70996094 99.71351563 -212.41992188 98.42703125 -212.12109375 97.1015625 C-205.68764764 70.99092348 -193.46744394 48.54113254 -175 29 C-174.20335937 28.12730469 -173.40671875 27.25460937 -172.5859375 26.35546875 C-129.19277902 -19.46298711 -55.27404807 -26.93819058 0 0 Z " fill="#F0F0EF" transform="translate(396,413)"/>
<path d="M0 0 C1.17506607 -0.01859573 1.17506607 -0.01859573 2.37387085 -0.03756714 C35.85008142 -0.47646859 63.48721003 15.64992651 87.03125 38.21875 C91.52768207 42.6416423 95.46673356 47.39545021 99.25 52.4375 C100.04792969 53.47003906 100.84585937 54.50257813 101.66796875 55.56640625 C130.84316535 94.1199536 141.11898448 146.00245728 135.0625 193.375 C129.6286251 231.16915949 115.73540901 266.8756289 91.25 296.4375 C90.76885742 297.02015625 90.28771484 297.6028125 89.79199219 298.203125 C56.49694964 338.28564567 9.67777345 362.70093982 -42.08203125 369.0234375 C-50.54356842 369.79608366 -59.07307204 369.68191161 -67.5625 369.6875 C-68.48140015 369.68817474 -69.40030029 369.68884949 -70.3470459 369.68954468 C-83.71012907 369.6739411 -96.64735787 369.28529648 -109.75 366.4375 C-110.58724609 366.26589355 -111.42449219 366.09428711 -112.28710938 365.91748047 C-150.56529671 357.97950945 -186.40007666 341.74705918 -214.75 314.4375 C-215.28334961 313.92993164 -215.81669922 313.42236328 -216.36621094 312.89941406 C-224.66386439 304.97198497 -232.13727658 296.82129517 -238.75 287.4375 C-239.37600098 286.55408936 -239.37600098 286.55408936 -240.01464844 285.65283203 C-270.87195992 241.72612935 -281.80616967 186.41160063 -273.29345703 133.60546875 C-267.19345126 99.33761692 -253.12892665 67.35761433 -229.75 41.4375 C-229.06421875 40.62023437 -228.3784375 39.80296875 -227.671875 38.9609375 C-210.47874481 18.62272252 -183.96128769 5.01936635 -157.75 1.4375 C-153.66189113 1.14749764 -149.5974155 1.10381124 -145.5 1.125 C-144.34830322 1.12991455 -143.19660645 1.1348291 -142.01000977 1.13989258 C-119.8088871 1.42972447 -96.62570906 2.55450402 -76.1875 11.9375 C-72.79779409 13.36992914 -71.11245568 13.5805932 -67.6796875 12.25 C-66.89424561 11.96189453 -66.10880371 11.67378906 -65.29956055 11.37695312 C-64.45820557 11.06693359 -63.61685059 10.75691406 -62.75 10.4375 C-41.58770169 3.56710445 -22.18417441 0.20447385 0 0 Z M-173.75 68.4375 C-174.62269531 69.23414063 -175.49539062 70.03078125 -176.39453125 70.8515625 C-199.5335322 92.76575224 -213.44685199 124.14187808 -217.75 155.4375 C-217.92055908 156.66218994 -218.09111816 157.88687988 -218.2668457 159.14868164 C-218.77639768 163.26264557 -218.92771276 167.35326643 -218.953125 171.49609375 C-218.95882507 172.24351334 -218.96452515 172.99093292 -218.97039795 173.76100159 C-218.9797838 175.33666601 -218.98635616 176.9123495 -218.99023438 178.48803711 C-218.99984904 180.83810082 -219.03089534 183.18725341 -219.0625 185.53710938 C-219.16000119 199.35407051 -217.4348405 212.70752841 -213.0625 225.875 C-212.80758789 226.65593018 -212.55267578 227.43686035 -212.29003906 228.24145508 C-205.43442827 248.62604451 -195.37933849 266.64053889 -180.75 282.4375 C-180.25129395 282.98003418 -179.75258789 283.52256836 -179.23876953 284.08154297 C-157.87230766 307.06616541 -128.35963162 323.91640898 -97.25 329.0625 C-96.51152832 329.18729736 -95.77305664 329.31209473 -95.01220703 329.44067383 C-55.85376843 335.9212105 -15.60186592 326.89249358 16.8203125 303.953125 C49.10997216 280.16867772 71.0899619 245.11687346 77.25 205.4375 C83.19842217 166.13483319 75.73571766 123.47069132 52.3125 90.6875 C50.97320498 88.92609255 49.61892355 87.17598085 48.25 85.4375 C47.55132812 84.53515625 46.85265625 83.6328125 46.1328125 82.703125 C22.6288617 53.09316563 -12.67835534 33.4287968 -50.34277344 29.00415039 C-96.52135474 24.49585833 -139.76376506 36.31864061 -173.75 68.4375 Z " fill="#DE4347" transform="translate(398.75,369.5625)"/>
<path d="M0 0 C1.20400955 0.00581589 1.20400955 0.00581589 2.43234253 0.01174927 C3.34392624 0.01922684 3.34392624 0.01922684 4.27392578 0.02685547 C4.2753508 0.60457199 4.27677582 1.18228851 4.27824402 1.7775116 C4.29794709 7.79641049 4.35223331 13.81429605 4.42651367 19.83276367 C4.44969523 22.0781324 4.46408974 24.32360988 4.46948242 26.5690918 C4.47877048 29.7991922 4.51976001 33.02758156 4.56689453 36.25732422 C4.56099556 37.76071602 4.56099556 37.76071602 4.55497742 39.29447937 C4.65330804 44.00298131 4.71946689 46.29502487 7.63061523 50.13745117 C10.18896444 52.16209229 10.18896444 52.16209229 13.27392578 53.02685547 C13.27392578 84.70685547 13.27392578 116.38685547 13.27392578 149.02685547 C3.62686696 151.43862017 3.62686696 151.43862017 0.27392578 150.02685547 C-1.94625941 148.2093769 -3.97069944 146.30100081 -5.72607422 144.02685547 C-5.72607422 143.36685547 -5.72607422 142.70685547 -5.72607422 142.02685547 C-6.38607422 142.02685547 -7.04607422 142.02685547 -7.72607422 142.02685547 C-8.98599243 140.75805664 -8.98599243 140.75805664 -10.52148438 138.88232422 C-19.06862919 128.84335311 -28.64321716 119.65722253 -37.91261864 110.29187012 C-41.36302109 106.8055587 -44.80391038 103.31087942 -48.22412109 99.79492188 C-51.55157433 96.37466183 -54.9005939 92.97698451 -58.26601028 89.59408569 C-59.53922301 88.30680282 -60.80466128 87.01178035 -62.06190109 85.70889282 C-63.82054114 83.88948629 -65.60555338 82.10051474 -67.39941406 80.31591797 C-67.90775284 79.77679276 -68.41609161 79.23766754 -68.93983459 78.6822052 C-72.01138445 75.69575821 -74.26242744 74.69095645 -78.43789673 74.61816406 C-82.2523332 74.7884659 -84.74790673 75.49992548 -87.72607422 78.02685547 C-89.97004852 81.72298565 -90.11188186 84.41068932 -89.51953125 88.62353516 C-87.95425559 93.36463472 -84.25915953 96.34960218 -80.66357422 99.65185547 C-79.92429687 100.36341797 -79.18501953 101.07498047 -78.42333984 101.80810547 C-75.69796673 104.411874 -72.95091477 106.97852958 -70.0867157 109.42996216 C-63.70482791 114.90709488 -57.73186127 120.78297422 -51.75341797 126.69091797 C-51.19684572 127.24091839 -50.64027348 127.79091881 -50.0668354 128.35758591 C-47.13384643 131.25824983 -44.20475849 134.16279827 -41.27807617 137.06982422 C-38.86028153 139.46967711 -36.43421242 141.86068436 -34.00073242 144.24462891 C-31.0475412 147.13781513 -28.10917176 150.04528652 -25.18097115 152.96375656 C-24.0660601 154.07009966 -22.94601511 155.17129385 -21.82081413 156.26716995 C-20.25529008 157.79398949 -18.70954769 159.33845706 -17.16723633 160.88867188 C-15.84108559 162.19936142 -15.84108559 162.19936142 -14.48814392 163.53652954 C-12.72607422 166.02685547 -12.72607422 166.02685547 -12.93360901 168.64804077 C-13.19512253 169.43304962 -13.45663605 170.21805847 -13.72607422 171.02685547 C-14.54972409 182.08536771 -13.5268883 190.62464069 -6.47607422 199.40185547 C-0.67520825 205.53667321 5.10991732 206.98585335 13.27392578 209.02685547 C13.27392578 240.04685547 13.27392578 271.06685547 13.27392578 303.02685547 C10.96392578 304.01685547 8.65392578 305.00685547 6.27392578 306.02685547 C5.06439183 308.44592337 5.1171267 310.04851855 5.06860352 312.75195312 C5.04865829 313.73281891 5.02871307 314.71368469 5.00816345 315.72427368 C4.99145096 316.7857663 4.97473846 317.84725891 4.95751953 318.94091797 C4.93673843 320.02569427 4.91595734 321.11047058 4.89454651 322.2281189 C4.82901945 325.70263168 4.77015131 329.17722171 4.71142578 332.65185547 C4.66824357 335.00342604 4.62462938 337.35498873 4.58056641 339.70654297 C4.47333485 345.47989817 4.37157434 351.25333067 4.27392578 357.02685547 C-37.08328326 357.62623531 -77.6420935 334.76178387 -106.72607422 307.02685547 C-107.55751953 306.25986328 -108.38896484 305.49287109 -109.24560547 304.70263672 C-123.02950205 291.58678036 -132.85528808 275.72060594 -141.72607422 259.02685547 C-142.1038501 258.3269751 -142.48162598 257.62709473 -142.87084961 256.90600586 C-145.11813754 251.96813112 -142.96771243 244.74415241 -142.23730469 239.55322266 C-140.75046552 228.86980066 -140.30435778 218.30300168 -140.10107422 207.52685547 C-140.06275723 205.81720318 -140.0236984 204.10756735 -139.98388672 202.39794922 C-139.88943654 198.27439004 -139.80488684 194.15074193 -139.72607422 190.02685547 C-138.41251953 189.98947266 -137.09896484 189.95208984 -135.74560547 189.91357422 C-134.00990057 189.8478989 -132.27422475 189.7814521 -130.53857422 189.71435547 C-129.67425781 189.69179688 -128.80994141 189.66923828 -127.91943359 189.64599609 C-121.30727669 189.38097206 -121.30727669 189.38097206 -115.72607422 186.02685547 C-114.52004977 183.05903495 -114.4307101 180.20341298 -114.72607422 177.02685547 C-116.78946635 173.48961182 -117.83865987 172.32266025 -121.72607422 171.02685547 C-123.35174501 170.87970348 -124.98194279 170.7796368 -126.61279297 170.71044922 C-127.55058594 170.66855469 -128.48837891 170.62666016 -129.45458984 170.58349609 C-130.43105469 170.54417969 -131.40751953 170.50486328 -132.41357422 170.46435547 C-133.40164063 170.42117188 -134.38970703 170.37798828 -135.40771484 170.33349609 C-137.84702968 170.22743893 -140.28644535 170.12537833 -142.72607422 170.02685547 C-142.84611816 169.48496582 -142.96616211 168.94307617 -143.08984375 168.38476562 C-143.66732321 165.80485034 -144.25697471 163.22799578 -144.85107422 160.65185547 C-145.06900635 159.70536133 -145.28693848 158.75886719 -145.51147461 157.78369141 C-147.19420609 150.71231824 -149.29648879 143.89621822 -152.02148438 137.15429688 C-155.23881133 128.51506385 -151.52837542 120.79427023 -148.22607422 112.65185547 C-147.87786621 111.79188965 -147.5296582 110.93192383 -147.17089844 110.04589844 C-141.04570206 95.26828903 -133.52687475 81.66846775 -123.72607422 69.02685547 C-122.99775391 68.08712891 -122.26943359 67.14740234 -121.51904297 66.17919922 C-112.60293833 55.01398711 -103.18070863 44.62939383 -91.72607422 36.02685547 C-90.92580811 35.42212402 -90.92580811 35.42212402 -90.109375 34.80517578 C-66.95237346 17.4157045 -40.49355056 5.26695969 -11.72607422 1.02685547 C-10.60974609 0.83865234 -9.49341797 0.65044922 -8.34326172 0.45654297 C-5.48289121 0.11675814 -2.86527534 -0.01800413 0 0 Z " fill="#F0F0F0" transform="translate(694.72607421875,326.97314453125)"/>
<path d="M0 0 C3.02519989 2.05971056 4.66926776 3.51573824 5.48046875 7.15625 C5.6385644 9.71996329 5.72171087 11.5207109 5 14 C2.84375 16.421875 2.84375 16.421875 0 19 C-0.98295328 19.93104488 -1.96468965 20.86337591 -2.9453125 21.796875 C-8.90607233 27.35389569 -14.96260144 32.6844655 -21.3203125 37.7890625 C-24.13253315 40.1093495 -26.81797263 42.53071134 -29.5 45 C-33.94727112 49.09351091 -38.54717463 52.92442499 -43.25 56.71875 C-46.08099578 59.06718968 -48.79383598 61.50909902 -51.5 64 C-55.8663581 68.01482927 -60.36536407 71.79184955 -64.98046875 75.515625 C-69.22830687 79.01061212 -73.37523453 82.61909632 -77.48730469 86.27270508 C-81.16539818 89.51738358 -84.90589371 92.28399401 -89 95 C-90.98 96.98 -90.98 96.98 -93 99 C-92.67 103.29 -92.34 107.58 -92 112 C-58.01 112 -24.02 112 11 112 C11.99 114.31 12.98 116.62 14 119 C17.85604425 121.57069617 21.12746343 121.35065056 25.60546875 121.4140625 C26.44467361 121.43342865 27.28387848 121.4527948 28.14851379 121.4727478 C30.82807258 121.53251213 33.5076744 121.57891612 36.1875 121.625 C38.00457599 121.6631827 39.82163394 121.70223461 41.63867188 121.7421875 C46.09230132 121.83821103 50.54601551 121.92225359 55 122 C55.46884914 164.83904143 33.56372739 206.76483638 4.35864258 236.97338867 C-4.15787042 245.63724329 -12.79693098 253.39801417 -23 260 C-23.59167969 260.38800781 -24.18335938 260.77601563 -24.79296875 261.17578125 C-51.14880286 278.26991227 -82.38672861 289.47419907 -114 289 C-114.00142502 288.4097554 -114.00285004 287.8195108 -114.00431824 287.21138 C-114.02401917 281.06273041 -114.07830102 274.91507305 -114.15258789 268.7668457 C-114.17577142 266.47297283 -114.19016441 264.17899345 -114.19555664 261.88500977 C-114.2048432 258.58542484 -114.24582988 255.28751586 -114.29296875 251.98828125 C-114.2890361 250.96414627 -114.28510345 249.94001129 -114.28105164 248.88484192 C-114.3774435 244.17093129 -114.44388168 241.75733172 -117.29418945 237.87573242 C-120.03240858 235.74158484 -120.03240858 235.74158484 -124 235 C-124 203.98 -124 172.96 -124 141 C-126.64 140.67 -129.28 140.34 -132 140 C-140.55374002 136.89076221 -146.61421892 130.51618245 -150.4375 122.375 C-152.80418605 115.85144229 -153.49202083 107.27014893 -151.17884827 100.64987183 C-150.70219889 97.80647424 -150.70219889 97.80647424 -152.95188904 95.31985474 C-153.91916603 94.33211769 -154.90341064 93.36083356 -155.90014648 92.40283203 C-156.43335007 91.867146 -156.96655365 91.33145996 -157.51591492 90.77954102 C-159.28696338 89.00757254 -161.07848159 87.25794171 -162.87109375 85.5078125 C-164.11012767 84.27743757 -165.34790867 83.04579973 -166.58448792 81.81295776 C-169.85125166 78.56345122 -173.13605418 75.33276727 -176.42449951 72.10522461 C-179.08733912 69.48574163 -181.73734187 66.85348955 -184.38665676 64.22033882 C-187.56479404 61.06194366 -190.7482491 57.90893721 -193.93359375 54.7578125 C-194.53387327 54.16395878 -195.13415279 53.57010506 -195.7526226 52.95825577 C-202.00813179 46.77991658 -208.29320116 40.69279969 -215 35 C-227.56984849 23.92131255 -227.56984849 23.92131255 -228.5 18.125 C-228.39955563 13.8677038 -226.85594958 11.16470088 -224 8 C-219.78133216 5.46067136 -215.80705295 5.08517795 -211 6 C-208.18999946 7.58848124 -206.13552552 9.70030688 -203.91967773 12.02685547 C-203.27462784 12.66737854 -202.62957794 13.30790161 -201.96498108 13.96783447 C-199.84889152 16.08001288 -197.7666138 18.22243041 -195.68359375 20.3671875 C-194.21854909 21.84394882 -192.75164718 23.31886974 -191.28297424 24.79202271 C-188.21577122 27.8775169 -185.16361011 30.97687082 -182.12280273 34.08837891 C-178.21737224 38.08452895 -174.28841341 42.05643441 -170.34968472 46.01974297 C-166.59931613 49.79481859 -162.85924902 53.58002272 -159.12109375 57.3671875 C-158.0453349 58.45540613 -158.0453349 58.45540613 -156.94784355 59.56560898 C-154.93147333 61.60971375 -152.92240223 63.66069444 -150.91577148 65.71435547 C-150.31276215 66.32431366 -149.70975281 66.93427185 -149.08847046 67.56271362 C-145 71.7699628 -145 71.7699628 -145 74 C-144.34 74 -143.68 74 -143 74 C-141.90122767 75.32490489 -140.84486711 76.68522306 -139.8125 78.0625 C-137.9869246 80.28185045 -137.9869246 80.28185045 -136 82 C-133.07651367 82.14009697 -133.07651367 82.14009697 -131.140625 81.515625 C-122.89065971 79.52840708 -114.7112234 80.86323116 -107 84 C-106.40574219 83.45472656 -105.81148437 82.90945313 -105.19921875 82.34765625 C-100.82362473 78.36675033 -96.4112881 74.47184202 -91.8125 70.75 C-86.03436349 66.07052325 -80.43101044 61.2058418 -74.82421875 56.32421875 C-71.23232055 53.19707968 -67.61975649 50.09481234 -64 47 C-58.5187908 42.31099379 -53.06261447 37.59391017 -47.61645508 32.86425781 C-42.74191541 28.63412304 -37.83831542 24.4388883 -32.92895508 20.24926758 C-29.46369373 17.28264769 -26.05830061 14.261795 -22.6875 11.1875 C-8.21157094 -1.94850836 -8.21157094 -1.94850836 0 0 Z " fill="#1A9287" transform="translate(832,395)"/>
<path d="M0 0 C7.79404476 -0.20577498 15.0965593 0.20578498 22.75 1.6875 C23.69955566 1.86684082 24.64911133 2.04618164 25.62744141 2.23095703 C33.98875875 3.87615301 41.97418483 6.16444586 50 9 C50.64598145 9.21881836 51.29196289 9.43763672 51.95751953 9.66308594 C73.07280296 16.82450867 92.23609861 28.33158628 109 43 C109.78503906 43.68449219 109.78503906 43.68449219 110.5859375 44.3828125 C118.17228529 51.04312722 124.85689358 57.95355634 131 66 C131.72574219 66.91007812 132.45148438 67.82015625 133.19921875 68.7578125 C152.15064949 93.03416532 163.7340715 121.79176996 169 152 C169.29777344 153.65902344 169.29777344 153.65902344 169.6015625 155.3515625 C170.13575911 160.24312755 170.07999389 165.08481988 170 170 C168.3125769 170.01401855 168.3125769 170.01401855 166.59106445 170.02832031 C162.40674631 170.06827255 158.22315937 170.13404552 154.03930664 170.20751953 C152.23048311 170.23569889 150.42153714 170.25692855 148.61254883 170.27099609 C146.00799006 170.29246814 143.40489866 170.33913811 140.80078125 170.390625 C139.59268547 170.39246796 139.59268547 170.39246796 138.36018372 170.39434814 C134.5415742 170.49337058 132.4267701 170.74823378 129.07495117 172.72558594 C126.58565973 175.1866394 126.58565973 175.1866394 125 180 C91.01 180 57.02 180 22 180 C20 167 20 167 22.41015625 163.4921875 C24.140625 162.15039063 24.140625 162.15039063 26.0625 160.875 C27.37674069 159.88339355 28.69053328 158.89119295 30.00390625 157.8984375 C30.67566895 157.41600586 31.34743164 156.93357422 32.03955078 156.43652344 C34.99076238 154.27401671 37.73424041 151.89181103 40.5 149.5 C41.57322394 148.59127172 42.64745115 147.68372706 43.72265625 146.77734375 C48.31721935 142.88942418 52.88323318 138.96827321 57.44921875 135.046875 C59.84388299 132.9903355 62.24256169 130.93862686 64.64453125 128.890625 C69.88064468 124.42228669 75.09567332 119.94582096 80.1875 115.3125 C83.52227114 112.28287132 86.93287639 109.39391908 90.4375 106.5625 C96.16517602 101.9269656 101.57488942 96.9825789 107 92 C108.51483356 90.61839285 110.03499557 89.24258519 111.5625 87.875 C112.18253906 87.31554687 112.80257812 86.75609375 113.44140625 86.1796875 C115 85 115 85 117 85 C118.35187286 80.94438142 118.5367205 77.24009197 118 73 C115.89867166 69.63787465 114.42216489 69.12508589 110.625 68 C104.2743944 68 100.25703627 72.51192205 95.8125 76.6875 C92.13188136 80.08920844 88.4031733 83.35624239 84.5 86.5 C80.71539666 89.55348679 77.07792463 92.70668301 73.5 96 C69.0301488 100.11378909 64.40955107 103.97087297 59.68359375 107.78515625 C57.05291443 109.95632827 54.52057576 112.20241357 52 114.5 C47.70008209 118.41891252 43.24080453 122.09170869 38.71875 125.75 C36.07852271 127.93501569 33.5327028 130.19171391 31 132.5 C26.6624771 136.45196531 22.18686049 140.1846727 17.59375 143.8359375 C14.99500468 145.92651263 14.99500468 145.92651263 12.84375 148.2265625 C10.95524862 150.16752225 9.39041925 151.72383992 7 153 C4.49597326 152.76994807 2.71858013 152.10760868 0.46875 151 C-2.80491274 149.55059039 -2.80491274 149.55059039 -10 149 C-10 117.32 -10 85.64 -10 53 C-8.02 52.34 -6.04 51.68 -4 51 C-1.17908698 48.21116054 -0.62012876 46.13757991 -0.56762695 42.23144531 C-0.54783279 41.29077209 -0.52803864 40.35009888 -0.50764465 39.38092041 C-0.50125473 38.37349792 -0.49486481 37.36607544 -0.48828125 36.328125 C-0.47033005 35.29057068 -0.45237885 34.25301636 -0.43388367 33.184021 C-0.37973623 29.8727219 -0.34587015 26.56156733 -0.3125 23.25 C-0.27933091 21.00388612 -0.24484164 18.75779132 -0.20898438 16.51171875 C-0.12400729 11.00794209 -0.05567613 5.50414683 0 0 Z " fill="#DF4347" transform="translate(718,327)"/>
<path d="M0 0 C3.02519989 2.05971056 4.66926776 3.51573824 5.48046875 7.15625 C5.6385644 9.71996329 5.72171087 11.5207109 5 14 C2.84375 16.421875 2.84375 16.421875 0 19 C-0.98295328 19.93104488 -1.96468965 20.86337591 -2.9453125 21.796875 C-8.90607233 27.35389569 -14.96260144 32.6844655 -21.3203125 37.7890625 C-24.13253315 40.1093495 -26.81797263 42.53071134 -29.5 45 C-33.94727112 49.09351091 -38.54717463 52.92442499 -43.25 56.71875 C-46.08099578 59.06718968 -48.79383598 61.50909902 -51.5 64 C-55.8663581 68.01482927 -60.36536407 71.79184955 -64.98046875 75.515625 C-69.22830687 79.01061212 -73.37523453 82.61909632 -77.48730469 86.27270508 C-81.16539818 89.51738358 -84.90589371 92.28399401 -89 95 C-91.42501749 96.73119372 -91.42501749 96.73119372 -93 99 C-93.35658629 102.40985637 -93.00050623 105.30930376 -92.46484375 108.69140625 C-91.34137564 116.68785577 -93.49051845 123.55964761 -98.234375 129.99609375 C-103.84919956 136.36867118 -110.60366667 140.44530076 -119.078125 141.31640625 C-129.51524812 141.69262813 -136.56174503 139.08066429 -144.20703125 132 C-150.15583018 125.36430272 -152.14366084 118.80510349 -152.125 110.0625 C-152.12757813 108.85722656 -152.13015625 107.65195312 -152.1328125 106.41015625 C-152 103 -152 103 -151.18544006 100.63668823 C-150.70188802 97.80487063 -150.70188802 97.80487063 -152.95188904 95.31985474 C-153.91916603 94.33211769 -154.90341064 93.36083356 -155.90014648 92.40283203 C-156.43335007 91.867146 -156.96655365 91.33145996 -157.51591492 90.77954102 C-159.28696338 89.00757254 -161.07848159 87.25794171 -162.87109375 85.5078125 C-164.11012767 84.27743757 -165.34790867 83.04579973 -166.58448792 81.81295776 C-169.85125166 78.56345122 -173.13605418 75.33276727 -176.42449951 72.10522461 C-179.08733912 69.48574163 -181.73734187 66.85348955 -184.38665676 64.22033882 C-187.56479404 61.06194366 -190.7482491 57.90893721 -193.93359375 54.7578125 C-194.53387327 54.16395878 -195.13415279 53.57010506 -195.7526226 52.95825577 C-202.00813179 46.77991658 -208.29320116 40.69279969 -215 35 C-227.56984849 23.92131255 -227.56984849 23.92131255 -228.5 18.125 C-228.39955563 13.8677038 -226.85594958 11.16470088 -224 8 C-219.78133216 5.46067136 -215.80705295 5.08517795 -211 6 C-208.18999946 7.58848124 -206.13552552 9.70030688 -203.91967773 12.02685547 C-203.27462784 12.66737854 -202.62957794 13.30790161 -201.96498108 13.96783447 C-199.84889152 16.08001288 -197.7666138 18.22243041 -195.68359375 20.3671875 C-194.21854909 21.84394882 -192.75164718 23.31886974 -191.28297424 24.79202271 C-188.21577122 27.8775169 -185.16361011 30.97687082 -182.12280273 34.08837891 C-178.21737224 38.08452895 -174.28841341 42.05643441 -170.34968472 46.01974297 C-166.59931613 49.79481859 -162.85924902 53.58002272 -159.12109375 57.3671875 C-158.0453349 58.45540613 -158.0453349 58.45540613 -156.94784355 59.56560898 C-154.93147333 61.60971375 -152.92240223 63.66069444 -150.91577148 65.71435547 C-150.31276215 66.32431366 -149.70975281 66.93427185 -149.08847046 67.56271362 C-145 71.7699628 -145 71.7699628 -145 74 C-144.34 74 -143.68 74 -143 74 C-141.90122767 75.32490489 -140.84486711 76.68522306 -139.8125 78.0625 C-137.9869246 80.28185045 -137.9869246 80.28185045 -136 82 C-133.07651367 82.14009697 -133.07651367 82.14009697 -131.140625 81.515625 C-122.89065971 79.52840708 -114.7112234 80.86323116 -107 84 C-106.40574219 83.45472656 -105.81148437 82.90945313 -105.19921875 82.34765625 C-100.82362473 78.36675033 -96.4112881 74.47184202 -91.8125 70.75 C-86.03436349 66.07052325 -80.43101044 61.2058418 -74.82421875 56.32421875 C-71.23232055 53.19707968 -67.61975649 50.09481234 -64 47 C-58.5187908 42.31099379 -53.06261447 37.59391017 -47.61645508 32.86425781 C-42.74191541 28.63412304 -37.83831542 24.4388883 -32.92895508 20.24926758 C-29.46369373 17.28264769 -26.05830061 14.261795 -22.6875 11.1875 C-8.21157094 -1.94850836 -8.21157094 -1.94850836 0 0 Z " fill="#163A3E" transform="translate(832,395)"/>
<path d="M0 0 C3.29687046 2.78965962 3.92003197 4.55654092 4.6875 8.8125 C4.49748239 12.43083978 3.37269632 14.12282665 0.94921875 16.765625 C0.31314697 17.46147705 -0.3229248 18.1573291 -0.97827148 18.87426758 C-4.22272504 22.28562576 -7.52591767 25.62895298 -10.875 28.9375 C-11.60315918 29.66187256 -12.33131836 30.38624512 -13.08154297 31.13256836 C-16.16056951 34.19542424 -19.24558323 37.25222311 -22.33007812 40.30957031 C-24.59715458 42.55844117 -26.86112966 44.81040238 -29.125 47.0625 C-29.81062012 47.73982178 -30.49624023 48.41714355 -31.20263672 49.11499023 C-34.46019868 52.35618855 -37.59716931 55.63986158 -40.59399414 59.12475586 C-43.64644668 62.66377738 -46.90468213 65.81485497 -50.37109375 68.94140625 C-51.53528731 70.02967572 -52.69733606 71.12024339 -53.85742188 72.21289062 C-55.64609804 73.8970003 -57.44118153 75.56577774 -59.27612305 77.19946289 C-67.11369284 83.82507952 -67.11369284 83.82507952 -70.72460938 93.00732422 C-70.78940941 95.64868494 -70.5713771 98.05685116 -70.28295898 100.70288086 C-69.72681571 107.18322155 -72.93997982 111.88100647 -76.8125 116.8125 C-81.30900061 121.71880826 -86.61515793 124.46151062 -93.2265625 125.2734375 C-100.93971948 125.60005327 -107.03001225 123.51866283 -112.85546875 118.35546875 C-117.11401741 113.69735256 -120.12099789 109.11661236 -119.87109375 102.6796875 C-119.51749039 95.50104048 -119.51749039 95.50104048 -122.34521484 89.17333984 C-125.92237955 85.47477581 -129.97675838 82.38982016 -134.12744141 79.36474609 C-136.52735541 77.61565622 -138.82323187 75.75065569 -141.125 73.875 C-141.90101563 73.26398438 -142.67703125 72.65296875 -143.4765625 72.0234375 C-147.10651396 69.11273339 -150.63656423 66.08816473 -154.17749023 63.0703125 C-157.4667725 60.27464099 -160.79639691 57.54742347 -164.1875 54.875 C-165.79445388 53.58680254 -167.39856463 52.29505143 -169 51 C-169.92554688 50.25878906 -170.85109375 49.51757812 -171.8046875 48.75390625 C-178.64790225 43.00599358 -178.64790225 43.00599358 -180.3125 38.25 C-179.87189536 33.66771169 -178.39382875 31.39382875 -175.1875 28.1875 C-172.07458499 26.49763185 -170.51750187 26.3912016 -167 27 C-164.08096189 28.69368365 -161.57798998 30.83214479 -159 33 C-158.22140625 33.63035156 -157.4428125 34.26070313 -156.640625 34.91015625 C-154.31642515 36.79416673 -152.0053022 38.69310905 -149.69873047 40.59863281 C-147.79291219 42.17083703 -145.88295421 43.73792964 -143.97265625 45.3046875 C-137.2976606 50.78382221 -130.64116391 56.28041313 -124.0625 61.875 C-122.0428325 63.58471698 -120.02136812 65.29229245 -118 67 C-117.04867187 67.81082031 -116.09734375 68.62164063 -115.1171875 69.45703125 C-114.23289062 70.19308594 -113.34859375 70.92914062 -112.4375 71.6875 C-111.67308594 72.33074219 -110.90867187 72.97398437 -110.12109375 73.63671875 C-107.85941798 75.36045286 -107.85941798 75.36045286 -104 75 C-103.01 74.67 -102.02 74.34 -101 74 C-98.87672644 73.90476082 -96.75040289 73.87013638 -94.625 73.875 C-92.94277344 73.87113281 -92.94277344 73.87113281 -91.2265625 73.8671875 C-88 74 -88 74 -85.55062866 74.71702576 C-82.95934935 75.27553336 -82.95934935 75.27553336 -80.96524048 73.6934967 C-80.30462616 73.02257492 -79.64401184 72.35165314 -78.96337891 71.66040039 C-77.82662216 70.5278054 -77.82662216 70.5278054 -76.66690063 69.37232971 C-75.86158905 68.53918747 -75.05627747 67.70604523 -74.2265625 66.84765625 C-73.3845932 65.99956894 -72.5426239 65.15148163 -71.67514038 64.2776947 C-68.97745171 61.55300697 -66.30151668 58.80797182 -63.625 56.0625 C-61.82945326 54.2454313 -60.03259283 52.42965974 -58.234375 50.61523438 C-51.54248859 43.83854304 -44.88474541 37.08966865 -38.65869141 29.87934875 C-35.97896801 26.84313912 -33.12944232 23.98644685 -30.26171875 21.12890625 C-29.65487747 20.52110825 -29.04803619 19.91331024 -28.42280579 19.28709412 C-27.15606271 18.01967731 -25.88808327 16.75349507 -24.61889648 15.48852539 C-22.67118197 13.54622735 -20.7289407 11.5985686 -18.78710938 9.65039062 C-17.54980017 8.41374125 -16.31218132 7.17740158 -15.07421875 5.94140625 C-14.49403488 5.35919815 -13.91385101 4.77699005 -13.31608582 4.17713928 C-8.51808283 -0.59274347 -6.77099457 -1.634378 0 0 Z " fill="#14393C" transform="translate(423,450)"/>
<path d="M0 0 C0.639375 -0.01289062 1.27875 -0.02578125 1.9375 -0.0390625 C5.24715405 1.02654581 6.8001433 2.98227007 9 5.625 C9.59936523 8.88305664 9.59936523 8.88305664 9.55859375 12.53515625 C9.55150391 13.85451172 9.54441406 15.17386719 9.53710938 16.53320312 C9.52059326 17.21519775 9.50407715 17.89719238 9.48706055 18.59985352 C9.43755896 20.68501627 9.42557151 22.76781759 9.41992188 24.85351562 C9.28007366 36.29309953 9.28007366 36.29309953 7 39.625 C3.83181244 41.73712504 1.86780748 41.95656464 -1.8671875 42.18359375 C-5.29500633 41.28583168 -6.77242781 39.31529476 -9 36.625 C-9.64697266 33.29101562 -9.64697266 33.29101562 -9.6640625 29.53125 C-9.66884613 28.86210571 -9.67362976 28.19296143 -9.67855835 27.50354004 C-9.68194656 26.09494666 -9.67281922 24.68627348 -9.65185547 23.27783203 C-9.62506289 21.13004114 -9.65162766 18.98747347 -9.68359375 16.83984375 C-9.68028945 15.46613438 -9.67388276 14.09242824 -9.6640625 12.71875 C-9.65842285 11.47802734 -9.6527832 10.23730469 -9.64697266 8.95898438 C-8.67507622 3.9506003 -5.42083012 -0.10929093 0 0 Z " fill="#133538" transform="translate(328,637.375)"/>
<path d="M0 0 C3.97245401 0.70936679 5.67231707 1.79731707 8.5 4.625 C10.59723531 8.81947062 9.8088288 14.22212138 9.85009766 18.83642578 C9.86661388 20.18848943 9.89384766 21.54046732 9.93212891 22.89208984 C10.28861355 35.55504448 10.28861355 35.55504448 7.23046875 39.5078125 C3.49044017 42.40780605 3.49044017 42.40780605 0.4375 42.25 C-3.79509682 41.57815923 -5.01129559 41.00963799 -7.5 37.625 C-9.59723531 33.43052938 -8.8088288 28.02787862 -8.85009766 23.41357422 C-8.86661388 22.06151057 -8.89384766 20.70953268 -8.93212891 19.35791016 C-9.28867609 6.6927341 -9.28867609 6.6927341 -6.1953125 2.7421875 C-3.5 0.625 -3.5 0.625 0 0 Z " fill="#123538" transform="translate(327.5,418.375)"/>
<path d="M0 0 C0.69512695 -0.00478363 1.39025391 -0.00956726 2.10644531 -0.01449585 C3.57228872 -0.01788977 5.03820833 -0.00872231 6.50390625 0.01220703 C8.74390886 0.03898967 10.97890266 0.01245251 13.21875 -0.01953125 C14.64584436 -0.01622705 16.07293561 -0.00982058 17.5 0 C19.44132812 0.00845947 19.44132812 0.00845947 21.421875 0.01708984 C24.75 0.6640625 24.75 0.6640625 27.171875 3.01806641 C29.11653208 6.27861613 29.37299344 7.92610185 28.75 11.6640625 C27.171875 14.31225586 27.171875 14.31225586 24.75 16.6640625 C21.421875 17.29516602 21.421875 17.29516602 17.5 17.29296875 C16.80487305 17.29538071 16.10974609 17.29779266 15.39355469 17.30027771 C13.92767619 17.29930065 12.46176016 17.28594001 10.99609375 17.26098633 C8.75653341 17.22666263 6.52091874 17.24033089 4.28125 17.25976562 C2.85414993 17.25286683 1.42706001 17.24319411 0 17.23046875 C-1.29421875 17.21959229 -2.5884375 17.20871582 -3.921875 17.19750977 C-7.77090667 16.58056917 -8.98668954 15.78976987 -11.25 12.6640625 C-11.83478349 8.64367597 -11.74358401 6.50263607 -9.671875 2.98291016 C-6.40212181 -0.14774668 -4.47825152 0.01951429 0 0 Z " fill="#133538" transform="translate(432.25,541.3359375)"/>
<path d="M0 0 C0.67293091 -0.0038269 1.34586182 -0.00765381 2.03918457 -0.01159668 C3.4579417 -0.0143113 4.87674927 -0.00698134 6.29541016 0.00976562 C8.46240203 0.03118725 10.62607951 0.00995462 12.79296875 -0.015625 C14.17448646 -0.01298164 15.5560021 -0.00785647 16.9375 0 C18.18982422 0.00451172 19.44214844 0.00902344 20.73242188 0.01367188 C24.52605866 0.62037903 25.6863275 1.49995064 27.96875 4.53125 C29.14465974 8.21576718 29.30356338 9.81379275 27.65625 13.34375 C25.96875 15.53125 25.96875 15.53125 23.96875 16.53125 C19.58028515 16.78937405 15.18806056 16.8022509 10.79296875 16.82641602 C8.6087369 16.84363187 6.42601825 16.88752034 4.2421875 16.93164062 C2.85157362 16.94176777 1.46094689 16.95028381 0.0703125 16.95703125 C-1.19474121 16.97161377 -2.45979492 16.98619629 -3.76318359 17.0012207 C-7.58240677 16.45198982 -8.73353846 15.56486454 -11.03125 12.53125 C-11.5625 10.53125 -11.5625 10.53125 -11.53125 8.53125 C-11.54671875 7.54125 -11.54671875 7.54125 -11.5625 6.53125 C-9.96944718 0.53387467 -5.50219049 0.01982261 0 0 Z " fill="#153539" transform="translate(208.03125,541.46875)"/>
<path d="M0 0 C2.75329021 1.79562405 4.52627461 3.05254922 6 6 C6.43023798 9.87214182 6.31669086 11.52496371 4.125 14.8125 C1.42055063 17.59649199 0.57733296 17.93464155 -3.3125 18.375 C-7 18 -7 18 -9.9375 16 C-12.23092162 12.66411401 -12.75815509 10.90015906 -12.48046875 6.9375 C-10.87278432 0.45447986 -5.98096831 -0.96122705 0 0 Z " fill="#EFF0EF" transform="translate(713,496)"/>
<path d="M0 0 C0.66 0 1.32 0 2 0 C2.66 3.3 3.32 6.6 4 10 C53.5 10.495 53.5 10.495 104 11 C104.33 10.34 104.66 9.68 105 9 C105 10.32 105 11.64 105 13 C71.01 13 37.02 13 2 13 C1.34 8.71 0.68 4.42 0 0 Z " fill="#F43E3C" transform="translate(738,494)"/>
<path d="M0 0 C-0.969375 0.61875 -1.93875 1.2375 -2.9375 1.875 C-6.02835362 3.65678846 -6.02835362 3.65678846 -7 6 C-7.11840113 7.57206643 -7.17703033 9.14883269 -7.20532227 10.72509766 C-7.22526749 11.70596344 -7.24521271 12.68682922 -7.26576233 13.69741821 C-7.29083107 15.28965714 -7.29083107 15.28965714 -7.31640625 16.9140625 C-7.33718735 17.99883881 -7.35796844 19.08361511 -7.37937927 20.20126343 C-7.44490634 23.67577621 -7.50377447 27.15036624 -7.5625 30.625 C-7.60568221 32.97657058 -7.6492964 35.32813326 -7.69335938 37.6796875 C-7.80059093 43.4530427 -7.90235144 49.2264752 -8 55 C-13.56578651 55.03947366 -17.71873324 54.76042225 -23 53 C-23 52.67 -23 52.34 -23 52 C-18.71 52.33 -14.42 52.66 -10 53 C-10.02094727 51.63794434 -10.04189453 50.27588867 -10.06347656 48.87255859 C-10.13601209 43.80723633 -10.18184941 38.74195977 -10.21972656 33.67626953 C-10.23981107 31.48608676 -10.26708417 29.29595741 -10.30175781 27.10595703 C-10.35041409 23.95331624 -10.37300078 20.80138596 -10.390625 17.6484375 C-10.41127014 16.67321136 -10.43191528 15.69798523 -10.45318604 14.69320679 C-10.45512071 8.79869859 -9.91127015 5.4973266 -6 1 C-2.6 -1.3 -2.6 -1.3 0 0 Z " fill="#F5F7F7" transform="translate(707,629)"/>
<path d="M0 0 C0.85609863 0.11964111 1.71219727 0.23928223 2.59423828 0.36254883 C0.2228247 2.32743437 -2.04430108 4.16033229 -4.73657227 5.66650391 C-7.86642494 7.65526147 -10.34772748 10.05345595 -12.92529297 12.68676758 C-13.42872726 13.19303177 -13.93216156 13.69929596 -14.45085144 14.22090149 C-16.0447792 15.82595101 -17.63157879 17.43784026 -19.21826172 19.05004883 C-20.30308336 20.14491062 -21.38836527 21.23931656 -22.47412109 22.33325195 C-25.12335519 25.0044401 -27.76622249 27.68178166 -30.40576172 30.36254883 C-30.40576172 25.9764198 -27.6416127 24.11160815 -24.71044922 21.16333008 C-24.12538605 20.56828171 -23.54032288 19.97323334 -22.93753052 19.3601532 C-21.69558328 18.1030059 -20.44951811 16.84991558 -19.19970703 15.60058594 C-17.29316714 13.68749687 -15.41187727 11.75177253 -13.53076172 9.8137207 C-12.32130111 8.59545583 -11.11040856 7.37861054 -9.89794922 6.16333008 C-9.05851273 5.29155876 -9.05851273 5.29155876 -8.20211792 4.4021759 C-5.43774421 1.68504257 -3.91553493 0.41681501 0 0 Z " fill="#0B191B" transform="translate(417.40576171875,449.637451171875)"/>
<path d="M0 0 C-0.33 0.99 -0.66 1.98 -1 3 C-8.03905044 3.93854006 -14.90272572 4.10808032 -22 4 C-22 4.66 -22 5.32 -22 6 C-25.3 6 -28.6 6 -32 6 C-31.67 5.01 -31.34 4.02 -31 3 C-30.35973877 2.94465088 -29.71947754 2.88930176 -29.05981445 2.83227539 C-26.1437846 2.57855835 -23.22814766 2.32057051 -20.3125 2.0625 C-18.80139648 1.93198242 -18.80139648 1.93198242 -17.25976562 1.79882812 C-16.28330078 1.71181641 -15.30683594 1.62480469 -14.30078125 1.53515625 C-13.40528564 1.456604 -12.50979004 1.37805176 -11.5871582 1.29711914 C-8.98860725 1.03771704 -8.98860725 1.03771704 -6.41870117 0.46655273 C-4 0 -4 0 0 0 Z " fill="#DBE0E2" transform="translate(374,755)"/>
<path d="M0 0 C2.31 0 4.62 0 7 0 C7 15.18 7 30.36 7 46 C6.67 46 6.34 46 6 46 C6 31.81 6 17.62 6 3 C3.36 3 0.72 3 -2 3 C-1.34 2.01 -0.68 1.02 0 0 Z " fill="#EAEAEA" transform="translate(690,327)"/>
<path d="M0 0 C2.22909871 -0.02714735 4.45829367 -0.04646254 6.6875 -0.0625 C7.92886719 -0.07410156 9.17023438 -0.08570313 10.44921875 -0.09765625 C13.46235454 -0.01478673 16.08275339 0.29160551 19 1 C19 1.33 19 1.66 19 2 C9.33960055 3.26693763 -0.27721582 3.08984092 -10 3 C-10 2.67 -10 2.34 -10 2 C-6.7 1.67 -3.4 1.34 0 1 C0 0.67 0 0.34 0 0 Z " fill="#0C2428" transform="translate(334,756)"/>
<path d="M0 0 C0 0.66 0 1.32 0 2 C-2.5 3.625 -2.5 3.625 -5 5 C-3.02 6.65 -1.04 8.3 1 10 C-2.67034745 10 -4.0999431 8.9247108 -7.1875 7 C-8.08855469 6.443125 -8.98960937 5.88625 -9.91796875 5.3125 C-10.60503906 4.879375 -11.29210937 4.44625 -12 4 C-11 2 -11 2 -8.25 0.875 C-5.29813104 0.08026605 -3.02780163 -0.17810598 0 0 Z " fill="#142B2D" transform="translate(221,296)"/>
<path d="M0 0 C3.45826342 -0.05789006 6.91640293 -0.09355821 10.375 -0.125 C11.35984375 -0.14175781 12.3446875 -0.15851562 13.359375 -0.17578125 C14.77089844 -0.18544922 14.77089844 -0.18544922 16.2109375 -0.1953125 C17.51490479 -0.21102295 17.51490479 -0.21102295 18.84521484 -0.22705078 C21 0 21 0 23 2 C15.63959083 2.79725902 8.40239645 3.12886183 1 3 C0.67 2.01 0.34 1.02 0 0 Z " fill="#1F4246" transform="translate(312,756)"/>
<path d="M0 0 C1.875 1.1875 1.875 1.1875 2.875 3.1875 C0.64728658 3.69393553 -1.58224076 4.1923962 -3.8125 4.6875 C-5.67455078 5.10515625 -5.67455078 5.10515625 -7.57421875 5.53125 C-10.54898218 6.08104126 -13.11868602 6.32545705 -16.125 6.1875 C-13.08974514 4.16399676 -11.93073798 3.86625982 -8.4375 3.5625 C-7.62925781 3.48773438 -6.82101563 3.41296875 -5.98828125 3.3359375 C-5.06595703 3.26246094 -5.06595703 3.26246094 -4.125 3.1875 C-4.455 2.1975 -4.785 1.2075 -5.125 0.1875 C-2.125 -0.8125 -2.125 -0.8125 0 0 Z " fill="#EFF1F2" transform="translate(262.125,337.8125)"/>
<path d="M0 0 C0 0.99 0 1.98 0 3 C-8.42857143 5.28571429 -8.42857143 5.28571429 -13 5 C-12.67 4.01 -12.34 3.02 -12 2 C-10.0390625 1.26953125 -10.0390625 1.26953125 -7.625 0.8125 C-6.83351563 0.65394531 -6.04203125 0.49539063 -5.2265625 0.33203125 C-3 0 -3 0 0 0 Z " fill="#DDE1E3" transform="translate(388,752)"/>
<path d="M0 0 C0.66 0.33 1.32 0.66 2 1 C-1.3 4.3 -4.6 7.6 -8 11 C-8.99 10.67 -9.98 10.34 -11 10 C-7.50640535 6.40365256 -3.88901869 3.16548033 0 0 Z " fill="#EDF0F1" transform="translate(845,666)"/>
<path d="M0 0 C0.66 1.32 1.32 2.64 2 4 C1.34 4 0.68 4 0 4 C0.309375 5.11375 0.309375 5.11375 0.625 6.25 C1.04408751 9.32330841 0.61949011 10.42786866 -1 13 C-0.34 13 0.32 13 1 13 C1 13.66 1 14.32 1 15 C0.01 15 -0.98 15 -2 15 C-3.6112798 9.28728072 -2.08989546 5.31329355 0 0 Z " fill="#E5EAEA" transform="translate(544,446)"/>
<path d="M0 0 C5.28 0.33 10.56 0.66 16 1 C16 1.33 16 1.66 16 2 C8.97195301 2.85373239 2.07721931 3.12109311 -5 3 C-5 2.67 -5 2.34 -5 2 C-3.35 2 -1.7 2 0 2 C0 1.34 0 0.68 0 0 Z " fill="#063E41" transform="translate(374,368)"/>
<path d="M0 0 C0.66 0.33 1.32 0.66 2 1 C0.37660195 2.70884005 -1.29319053 4.37446717 -3 6 C-3.66 6 -4.32 6 -5 6 C-5.33 7.32 -5.66 8.64 -6 10 C-7.32 9.67 -8.64 9.34 -10 9 C-6.7 6.03 -3.4 3.06 0 0 Z " fill="#EC4545" transform="translate(751,483)"/>
<path d="M0 0 C0.66 0.99 1.32 1.98 2 3 C-2.62 3 -7.24 3 -12 3 C-7.09573904 -0.67819572 -5.86328807 -0.56741497 0 0 Z " fill="#204246" transform="translate(725,295)"/>
<path d="M0 0 C3.7952131 1.49097658 5.61042731 3.75700849 8 7 C5 7 5 7 2.3125 4.625 C0 2 0 2 0 0 Z " fill="#293E42" transform="translate(176,677)"/>
<path d="M0 0 C4.455 1.98 4.455 1.98 9 4 C7.02 4.99 7.02 4.99 5 6 C4.34 5.67 3.68 5.34 3 5 C3 4.34 3 3.68 3 3 C2.01 2.67 1.02 2.34 0 2 C0 1.34 0 0.68 0 0 Z " fill="#D9DFE0" transform="translate(614,691)"/>
<path d="M0 0 C3.28670403 3.28670403 5 7.35868331 5 12 C4.34 12 3.68 12 3 12 C2.49166409 10.75336669 1.99368855 9.50250613 1.5 8.25 C1.2215625 7.55390625 0.943125 6.8578125 0.65625 6.140625 C0 4 0 4 0 0 Z " fill="#0A3D42" transform="translate(523,466)"/>
<path d="M0 0 C0.78375 0.04125 1.5675 0.0825 2.375 0.125 C2.375 0.785 2.375 1.445 2.375 2.125 C3.365 2.125 4.355 2.125 5.375 2.125 C5.375 2.785 5.375 3.445 5.375 4.125 C2.075 3.465 -1.225 2.805 -4.625 2.125 C-2.625 0.125 -2.625 0.125 0 0 Z " fill="#DCE1E2" transform="translate(405.625,339.875)"/>
<path d="M0 0 C5.445 1.485 5.445 1.485 11 3 C10.67 3.66 10.34 4.32 10 5 C6.05140217 4.4359146 3.29120954 3.2568294 0 1 C0 0.67 0 0.34 0 0 Z " fill="#EAEDEF" transform="translate(792,310)"/>
<path d="M0 0 C3.36591866 1.44253657 5.51047079 3.33264727 8 6 C5.69 5.34 3.38 4.68 1 4 C0.67 2.68 0.34 1.36 0 0 Z " fill="#DC2D31" transform="translate(236,669)"/>
<path d="M0 0 C0.86625 0.3403125 0.86625 0.3403125 1.75 0.6875 C0.35804085 3.4714183 -1.40575779 3.66648997 -4.25 4.6875 C-4.91 4.0275 -5.57 3.3675 -6.25 2.6875 C-2.80384615 -0.38942308 -2.80384615 -0.38942308 0 0 Z " fill="#E6E8E8" transform="translate(708.25,496.3125)"/>
<path d="M0 0 C1.98 0 3.96 0 6 0 C1.375 4 1.375 4 -2 4 C-1.34 2.68 -0.68 1.36 0 0 Z " fill="#0C2425" transform="translate(414,450)"/>
<path d="M0 0 C0.66 0.66 1.32 1.32 2 2 C-0.97 3.32 -3.94 4.64 -7 6 C-7 4 -7 4 -5.75 2.4375 C-3.7852602 0.82360659 -2.52557477 0.24441046 0 0 Z " fill="#D7DCDE" transform="translate(209,356)"/>
<path d="M0 0 C0.66 0.33 1.32 0.66 2 1 C-0.97 3.475 -0.97 3.475 -4 6 C-4.66 5.67 -5.32 5.34 -6 5 C-3.375 1.125 -3.375 1.125 0 0 Z " fill="#102528" transform="translate(474,707)"/>
<path d="M0 0 C2.1519437 3.22791555 2.20086443 4.28400809 2 8 C1.01 8 0.02 8 -1 8 C-0.67 5.36 -0.34 2.72 0 0 Z " fill="#E0E4E3" transform="translate(555,551)"/>
<path d="M0 0 C2.01822917 0.06510417 4.03645833 0.13020833 6.0546875 0.1953125 C4.9921875 1.7578125 4.9921875 1.7578125 3.0546875 3.1953125 C-0.6328125 2.8828125 -0.6328125 2.8828125 -3.9453125 2.1953125 C-1.9453125 0.1953125 -1.9453125 0.1953125 0 0 Z " fill="#DADFE1" transform="translate(692.9453125,292.8046875)"/>
</svg>
