<?xml version="1.0" encoding="UTF-8"?>
<svg version="1.1" xmlns="http://www.w3.org/2000/svg" width="962" height="962">
<path d="M0 0 C1.03355197 -0.00036426 2.06710395 -0.00072852 3.13197568 -0.00110382 C6.61799582 -0.00108313 10.10396408 0.00615293 13.58997631 0.01333237 C16.10568936 0.01487789 18.62140271 0.01598965 21.13711613 0.01670337 C27.34099445 0.01964122 33.54485236 0.02731262 39.74872336 0.03698176 C47.17919144 0.04831253 54.60966098 0.05384106 62.04013531 0.0592684 C80.00547137 0.07268207 97.97078972 0.09633354 115.93611309 0.12107444 C124.44012542 0.13271085 132.94413918 0.14305444 141.44815337 0.15323574 C170.57255522 0.18812465 199.69695325 0.22510419 228.82134247 0.26939392 C230.65006227 0.27216982 232.47878207 0.27494562 234.30750186 0.27772133 C236.14060448 0.28050563 237.9737071 0.28329015 239.80680972 0.28607488 C243.48422165 0.29166107 247.16163359 0.29724299 250.83904552 0.30282211 C251.75083145 0.30420756 252.66261737 0.30559302 253.60203317 0.30702045 C283.13246623 0.35180894 312.662895 0.38442803 342.19335082 0.409667 C373.43104652 0.43640964 404.66871084 0.47395275 435.90637845 0.52384162 C439.34039249 0.52928641 442.7744066 0.53468802 446.20842075 0.54005814 C447.47670164 0.54204921 447.47670164 0.54204921 448.77060436 0.54408051 C462.34208174 0.56513781 475.91355035 0.57648302 489.48504106 0.58431043 C503.14804324 0.59244262 516.8109958 0.61168774 530.47396711 0.64196286 C538.57626269 0.65960201 546.67846958 0.66916876 554.78078452 0.66671648 C560.85463114 0.66580856 566.92833774 0.68064594 573.00215366 0.70125863 C575.44184272 0.70717286 577.88155024 0.70819612 580.32124201 0.70352724 C592.30556711 0.68332541 604.10306786 1.0173294 616.01112175 2.45365143 C617.47712726 2.62786591 617.47712726 2.62786591 618.97274904 2.80559988 C624.68143038 3.57263336 629.5598265 4.9061602 634.87835217 7.11581039 C635.8258131 7.42260727 636.77327404 7.72940414 637.74944592 8.04549789 C649.92684488 12.2110501 661.74081282 17.4815324 672.47991467 24.58456039 C674.87266023 26.24944938 674.87266023 26.24944938 677.87835217 27.11581039 C679.04115924 28.27861747 680.19952932 29.44619234 681.33538342 30.63534164 C683.02034671 32.25205326 684.800901 33.55674584 686.69085217 34.92831039 C693.83503776 40.35885688 699.95932152 47.01286283 706.20891857 53.42586899 C707.47483323 54.70733451 708.7828157 55.94740996 710.10882092 57.16659164 C712.08405103 59.342397 713.4521523 61.68216571 714.85589123 64.25545883 C715.86025142 66.08287638 716.92628154 67.85272438 718.02678967 69.62362289 C734.87835217 96.92457685 734.87835217 96.92457685 734.87835217 109.11581039 C735.53835217 109.11581039 736.19835217 109.11581039 736.87835217 109.11581039 C737.01241467 110.26565414 737.14647717 111.41549789 737.28460217 112.60018539 C737.63853927 115.44414484 738.06475742 118.25311187 738.59710217 121.06893539 C740.23047422 129.82268822 741.16760226 138.49486879 741.46302319 147.39341354 C741.52279007 149.15989993 741.52279007 149.15989993 741.58376437 150.96207291 C742.19780442 172.11672525 742.02773608 193.29250677 742.02373588 214.45369565 C742.02355102 220.56800741 742.02806416 226.68231436 742.03234877 232.79662432 C742.0419527 246.81943124 742.04483033 260.84223446 742.04540583 274.86504429 C742.04586757 285.69984478 742.04793723 296.53464386 742.05110645 307.36944389 C742.05200415 310.5020857 742.05289396 313.63472752 742.05378133 316.76736933 C742.05400238 317.54640168 742.05422343 318.32543404 742.05445117 319.12807343 C742.06059331 340.99872844 742.06455294 362.86938296 742.06410789 384.74003887 C742.06409232 385.56232656 742.06407674 386.38461424 742.06406069 387.23181973 C742.06397759 391.39838637 742.06387855 395.564953 742.06377598 399.73151963 C742.06374606 400.97250241 742.06374606 400.97250241 742.06371554 402.23855555 C742.0636751 403.91159409 742.0636333 405.58463263 742.06359015 407.25767117 C742.06297734 433.28973553 742.07048993 459.32178687 742.08416271 485.3538475 C742.09955924 514.67906397 742.10812689 544.00427187 742.10719949 573.32949263 C742.10712487 576.4624488 742.10707616 579.59540496 742.10704517 582.72836113 C742.10702769 583.88527107 742.10702769 583.88527107 742.10700986 585.06555293 C742.10697924 597.41391433 742.11333244 609.7622643 742.12197744 622.11062231 C742.13049854 634.53977415 742.13140915 646.96890948 742.12486812 659.39806264 C742.12152246 666.11562458 742.12148103 672.83314058 742.13022137 679.55070114 C742.21481016 749.11125828 742.21481016 749.11125828 737.87835217 769.11581039 C737.21835217 769.44581039 736.55835217 769.77581039 735.87835217 770.11581039 C735.52017239 772.44545904 735.19214871 774.77976945 734.87835217 777.11581039 C730.36446759 793.18923703 722.61337421 807.88506777 712.37444592 821.04940414 C710.70372791 823.13934266 710.70372791 823.13934266 709.87835217 826.11581039 C708.54501883 827.11581039 707.2116855 828.11581039 705.87835217 829.11581039 C705.54835217 830.10581039 705.21835217 831.09581039 704.87835217 832.11581039 C703.24163342 833.69393539 703.24163342 833.69393539 701.19085217 835.36581039 C697.81538165 838.20990094 695.00739643 841.15583292 692.30022717 844.63534164 C690.65906672 846.34413232 688.99084281 847.08138832 686.87835217 848.11581039 C686.54835217 848.77581039 686.21835217 849.43581039 685.87835217 850.11581039 C684.20944704 851.10046442 682.53642554 852.07909139 680.83928967 853.01424789 C677.7625421 854.74262003 674.83065918 856.68494889 671.87835217 858.61581039 C658.88176513 867.11581039 658.88176513 867.11581039 654.87835217 867.11581039 C654.54835217 867.77581039 654.21835217 868.43581039 653.87835217 869.11581039 C650.97575405 870.49072529 649.11696511 871.11581039 645.87835217 871.11581039 C645.54835217 871.77581039 645.21835217 872.43581039 644.87835217 873.11581039 C642.55678619 873.52310267 640.22147347 873.86019716 637.87835217 874.11581039 C637.87835217 874.77581039 637.87835217 875.43581039 637.87835217 876.11581039 C636.48616467 876.27049789 636.48616467 876.27049789 635.06585217 876.42831039 C631.94777876 876.86137615 629.07424089 877.63408051 626.06585217 878.55331039 C619.41216307 880.45304057 612.68184759 881.02497655 605.81975842 881.68612289 C602.17953488 881.98450148 602.17953488 881.98450148 599.90629993 882.63468771 C597.69873751 883.15842327 595.75741791 883.24191697 593.48978168 883.24346089 C592.17125492 883.24798485 592.17125492 883.24798485 590.82609126 883.25260019 C589.862808 883.25083072 588.89952475 883.24906125 587.90705109 883.24723816 C586.8776209 883.24929079 585.84819072 883.25134343 584.78756568 883.25345826 C581.30962205 883.25914974 577.83171775 883.25766836 574.35377026 883.25625229 C571.84630512 883.25883472 569.3388404 883.26184753 566.83137625 883.26525569 C560.64425505 883.27249438 554.45714628 883.27502904 548.27002133 883.27558475 C540.86073775 883.27649787 533.45146217 883.28316402 526.04218203 883.28993157 C508.12972597 883.30600172 490.21727075 883.31189661 472.30480877 883.31668032 C463.8292529 883.31901588 455.35369771 883.32261856 446.87814237 883.32637569 C417.86151649 883.33921392 388.84489099 883.34993144 359.82826233 883.3533783 C358.00621604 883.35359993 356.18416976 883.35382171 354.36212347 883.35404365 C352.53567593 883.35426429 350.70922839 883.35448477 348.88278085 883.3547051 C345.21862558 883.35514765 341.55447032 883.35559476 337.89031506 883.35604477 C336.98181546 883.35615416 336.07331587 883.35626355 335.13728598 883.35637626 C305.69672932 883.36000474 276.25619731 883.37591551 246.81565008 883.39923513 C215.68552466 883.42384791 184.55541332 883.43755187 153.42527789 883.43874621 C150.00569705 883.43891766 146.58611621 883.43913309 143.16653538 883.43938065 C142.32454578 883.43943641 141.48255618 883.43949218 140.61505174 883.43954964 C127.08024729 883.44069903 113.54546817 883.45171184 100.01067227 883.4662677 C86.39585594 883.48065595 72.78107199 883.48385662 59.16625015 883.47582772 C51.08468924 883.47138193 43.00323306 883.47518981 34.92168598 883.49106623 C28.87570006 883.50200977 22.82983277 883.49714197 16.78384229 883.48629436 C14.34625822 883.48433959 11.90866356 883.48740552 9.47109435 883.49613872 C-3.76115314 883.54052609 -16.17988758 883.0270083 -29.12164783 880.11581039 C-30.01457088 879.92800042 -30.90749393 879.74019045 -31.82747525 879.54668927 C-33.8909569 879.10140584 -35.94463483 878.61126625 -37.99664783 878.11581039 C-38.69008289 877.94919907 -39.38351795 877.78258774 -40.09796619 877.61092758 C-45.80354765 876.22703467 -51.47549522 874.72551265 -57.12164783 873.11581039 C-57.12164783 872.45581039 -57.12164783 871.79581039 -57.12164783 871.11581039 C-57.86414783 871.15706039 -58.60664783 871.19831039 -59.37164783 871.24081039 C-62.20923736 871.11182905 -63.70938721 870.54529817 -66.12164783 869.11581039 C-66.12164783 868.45581039 -66.12164783 867.79581039 -66.12164783 867.11581039 C-66.78164783 867.05135727 -67.44164783 866.98690414 -68.12164783 866.92049789 C-72.30838767 865.79749216 -75.51221568 863.59160292 -79.12164783 861.24081039 C-80.51729356 860.34728813 -81.91312266 859.4540522 -83.30914783 858.56112289 C-83.96544178 858.13718246 -84.62173573 857.71324203 -85.29791737 857.27645493 C-86.84118285 856.29430176 -88.41233065 855.35617146 -89.98883533 854.42831039 C-92.40275917 852.9428188 -94.12439511 851.11306312 -96.12164783 849.11581039 C-97.11164783 848.78581039 -98.10164783 848.45581039 -99.12164783 848.11581039 C-100.59430408 846.61971664 -100.59430408 846.61971664 -102.18414783 844.67831039 C-106.54099831 839.53015161 -111.3165115 834.84188599 -116.12164783 830.11581039 C-118.04147393 828.1959843 -119.33152691 826.38284524 -120.80914783 824.11581039 C-123.65391461 819.77859209 -126.64709096 815.56768638 -129.70367908 811.37752914 C-131.06123407 809.21217284 -131.53325198 807.56116198 -132.12164783 805.11581039 C-132.78164783 804.78581039 -133.44164783 804.45581039 -134.12164783 804.11581039 C-135.19196033 802.37362289 -135.19196033 802.37362289 -136.24664783 800.24081039 C-136.59985096 799.54213852 -136.95305408 798.84346664 -137.31696033 798.12362289 C-138.12164783 796.11581039 -138.12164783 796.11581039 -138.12164783 793.11581039 C-138.78164783 792.78581039 -139.44164783 792.45581039 -140.12164783 792.11581039 C-144.72718295 780.05369463 -149.37594397 766.08491325 -149.12164783 753.11581039 C-149.78164783 752.78581039 -150.44164783 752.45581039 -151.12164783 752.11581039 C-151.08909575 750.26034164 -151.05654367 748.40487289 -151.02399158 746.54940414 C-151.07601472 744.00679795 -151.07601472 744.00679795 -151.6197117 741.0970217 C-152.30276553 736.39612389 -152.26071655 731.72491714 -152.25028229 726.98283577 C-152.25203532 725.9723829 -152.25378836 724.96193003 -152.25559452 723.92085737 C-152.2602567 720.52557211 -152.25778844 717.13032963 -152.2553606 713.73504257 C-152.25722847 711.27988482 -152.25952907 708.82472736 -152.26222593 706.36957037 C-152.26707301 701.02657107 -152.26879776 695.68358423 -152.26776981 690.3405838 C-152.2662449 682.39505456 -152.27040664 674.44953535 -152.27564444 666.50400806 C-152.2853174 651.48668623 -152.28812867 636.4693678 -152.2887015 621.45204322 C-152.28916101 609.85382636 -152.2912192 598.25561084 -152.29440212 586.65739441 C-152.29529967 583.31901761 -152.29618948 579.98064081 -152.297077 576.64226401 C-152.29740857 575.39736544 -152.29740857 575.39736544 -152.29774684 574.12731741 C-152.30390152 550.78094431 -152.30784736 527.43457166 -152.30740356 504.08819771 C-152.30738799 503.20790295 -152.30737241 502.32760818 -152.30735636 501.42063782 C-152.30727325 496.95893375 -152.30717421 492.49722968 -152.30707165 488.03552561 C-152.3070517 487.14941551 -152.30703176 486.26330541 -152.30701121 485.35034349 C-152.30697077 483.55841197 -152.30692897 481.76648044 -152.30688582 479.97454891 C-152.30627317 452.09991861 -152.31377748 424.22530049 -152.32745838 396.35067368 C-152.34282276 365.03308437 -152.35142437 333.71550307 -152.35049516 302.39790976 C-152.35042053 299.05764683 -152.35037182 295.7173839 -152.35034084 292.37712097 C-152.35032919 291.55466529 -152.35031753 290.7322096 -152.35030553 289.88483102 C-152.35027477 276.65532329 -152.35665787 263.42582614 -152.36527311 250.19632156 C-152.37375476 236.89672308 -152.37473553 223.59714004 -152.36816379 210.29754035 C-152.36447144 202.39955335 -152.36629106 194.50161332 -152.37610613 186.6036313 C-152.38282017 180.70153985 -152.3790441 174.79948501 -152.3712329 168.8973939 C-152.36969518 166.51313428 -152.37152431 164.12886957 -152.37709298 161.74461596 C-152.42418535 140.14846174 -152.42418535 140.14846174 -150.61149102 130.72724974 C-149.76803226 126.23062418 -149.46873153 121.67356735 -149.12164783 117.11581039 C-148.46164783 117.11581039 -147.80164783 117.11581039 -147.12164783 117.11581039 C-147.18352283 115.59987289 -147.18352283 115.59987289 -147.24664783 114.05331039 C-147.11923108 110.03968249 -146.47865321 106.88526977 -145.12164783 103.11581039 C-144.13164783 102.62081039 -144.13164783 102.62081039 -143.12164783 102.11581039 C-143.45164783 101.12581039 -143.78164783 100.13581039 -144.12164783 99.11581039 C-143.46164783 99.11581039 -142.80164783 99.11581039 -142.12164783 99.11581039 C-141.99789783 98.43518539 -141.87414783 97.75456039 -141.74664783 97.05331039 C-141.03063907 93.68806919 -140.09219659 90.41567615 -139.12164783 87.11581039 C-138.46164783 87.11581039 -137.80164783 87.11581039 -137.12164783 87.11581039 C-136.8754369 86.27405258 -136.62922596 85.43229477 -136.37555408 84.56502914 C-134.97690315 80.71764979 -133.14871233 77.4308541 -131.05914783 73.92831039 C-128.23293862 69.19690237 -128.23293862 69.19690237 -126.12164783 64.11581039 C-124.45498117 62.44914373 -122.7883145 60.78247706 -121.12164783 59.11581039 C-120.81227283 58.45581039 -120.50289783 57.79581039 -120.18414783 57.11581039 C-118.86470866 54.63216019 -116.99892924 53.37167744 -114.81696033 51.65877914 C-112.83758476 49.85727372 -111.38662854 47.90159211 -109.80914783 45.74081039 C-106.13594389 40.8963245 -102.02614827 37.65161303 -97.12164783 34.11581039 C-96.01535526 33.26439895 -94.9113444 32.41001773 -93.80914783 31.55331039 C-71.10333587 14.11581039 -71.10333587 14.11581039 -63.12164783 14.11581039 C-62.79164783 13.45581039 -62.46164783 12.79581039 -62.12164783 12.11581039 C-61.13164783 12.61081039 -61.13164783 12.61081039 -60.12164783 13.11581039 C-59.79164783 12.45581039 -59.46164783 11.79581039 -59.12164783 11.11581039 C-58.46164783 10.78581039 -57.80164783 10.45581039 -57.12164783 10.11581039 C-56.13164783 10.61081039 -56.13164783 10.61081039 -55.12164783 11.11581039 C-54.79164783 10.45581039 -54.46164783 9.79581039 -54.12164783 9.11581039 C-53.13164783 9.61081039 -53.13164783 9.61081039 -52.12164783 10.11581039 C-51.79164783 9.45581039 -51.46164783 8.79581039 -51.12164783 8.11581039 C-48.86383533 7.33456039 -48.86383533 7.33456039 -45.99664783 6.61581039 C-42.67438082 5.77014243 -39.38876098 4.90343431 -36.12164783 3.86581039 C-33.12164783 3.11581039 -33.12164783 3.11581039 -30.12164783 4.11581039 C-30.12164783 3.45581039 -30.12164783 2.79581039 -30.12164783 2.11581039 C-28.5844408 2.02493149 -28.5844408 2.02493149 -27.01617908 1.93221664 C-25.65549089 1.84776014 -24.2948144 1.76311473 -22.93414783 1.67831039 C-22.26061268 1.63899399 -21.58707752 1.59967758 -20.89313221 1.55916977 C-16.92331128 1.31426483 -16.92331128 1.31426483 -13.01865512 0.60327315 C-8.68263533 -0.12632397 -4.38923367 -0.01536996 0 0 Z " fill="#E5E7E9" transform="translate(186.12164783477783,40.88418960571289)"/>
<path d="M0 0 C16.25738534 7.48453212 24.05723305 21.66583418 30.10546875 37.9296875 C33.75143702 48.54415965 34.23565 59.8172454 35.10546875 70.9296875 C35.66492188 70.32382812 36.224375 69.71796875 36.80078125 69.09375 C53.04440238 52.11890477 73.60324188 40.49712521 97.51171875 39.69140625 C109.38465916 39.48160953 119.85940855 39.89264025 131.10546875 43.9296875 C131.10546875 44.9196875 131.10546875 45.9096875 131.10546875 46.9296875 C128.82421875 48.953125 128.82421875 48.953125 125.60546875 51.3046875 C124.40589256 52.19568674 123.20805384 53.08902868 122.01171875 53.984375 C121.37492187 54.4597168 120.738125 54.93505859 120.08203125 55.42480469 C116.6881017 58.00881923 113.40159768 60.72279287 110.10546875 63.4296875 C104.12190548 68.32781014 98.04904094 73.0809316 91.89453125 77.76171875 C89.495921 79.6261847 87.19460821 81.54506131 84.91796875 83.5546875 C82.10546875 85.9296875 82.10546875 85.9296875 80.10546875 85.9296875 C80.10546875 86.5896875 80.10546875 87.2496875 80.10546875 87.9296875 C81.19730469 88.03410156 82.28914063 88.13851562 83.4140625 88.24609375 C127.60093057 93.83850938 169.91325023 122.59942599 198.10546875 155.9296875 C200.13979401 158.57146386 202.13304846 161.24144565 204.10546875 163.9296875 C204.41661621 163.34179443 204.72776367 162.75390137 205.04833984 162.14819336 C215.31228948 142.83501841 226.21011031 125.43967365 241.015625 109.2421875 C242.78903716 107.27983236 244.4869712 105.28307341 246.16796875 103.2421875 C249.46472123 99.37950748 253.2248201 96.18996035 257.10546875 92.9296875 C257.9459375 92.18976563 258.78640625 91.44984375 259.65234375 90.6875 C302.45934839 53.67481367 357.39641964 38.579878 413.1875 42.203125 C437.57756765 44.29825939 462.10244642 51.28040981 484.10546875 61.9296875 C484.85296387 62.29046387 485.60045898 62.65124023 486.37060547 63.02294922 C505.95084273 72.60407672 522.87182791 85.22388359 538.85546875 99.9921875 C539.46986816 100.5579248 540.08426758 101.12366211 540.71728516 101.70654297 C571.04034041 130.11549114 590.25537028 169.7427615 599.10546875 209.9296875 C599.27062988 210.66509766 599.43579102 211.40050781 599.60595703 212.15820312 C605.33293356 239.14073165 603.98214694 270.1248883 598.10546875 296.9296875 C597.9235498 297.77644043 597.74163086 298.62319336 597.55419922 299.49560547 C589.06809975 337.72476314 570.06185756 371.74106121 543.10546875 399.9296875 C542.23148438 400.85652344 541.3575 401.78335937 540.45703125 402.73828125 C503.42697675 441.0171499 449.44103594 462.23062393 396.61914062 463.21728516 C339.81314891 463.64257957 286.59614965 440.22211043 246.35546875 400.6171875 C238.56028832 392.81490045 231.71210052 384.52166565 225.33789062 375.52929688 C224.04356008 373.84933378 222.63444162 372.39652504 221.10546875 370.9296875 C220.86538086 371.46634033 220.62529297 372.00299316 220.37792969 372.5559082 C212.20925609 390.65109556 202.54626972 407.4165496 190.10546875 422.9296875 C189.31269531 423.92613281 188.51992188 424.92257812 187.703125 425.94921875 C175.29698474 441.23038748 161.20274037 454.61298819 145.10546875 465.9296875 C144.53328613 466.33590332 143.96110352 466.74211914 143.37158203 467.16064453 C119.43718243 483.94256325 92.42839883 494.41712882 64.10546875 500.9296875 C63.37521484 501.09839355 62.64496094 501.26709961 61.89257812 501.44091797 C16.88444976 511.54056803 -32.16288633 506.78268111 -74.89453125 489.9296875 C-75.74853516 489.59598145 -76.60253906 489.26227539 -77.48242188 488.91845703 C-114.12604417 474.41650688 -146.30156379 450.54267751 -169.89453125 418.9296875 C-170.30912598 418.38650879 -170.7237207 417.84333008 -171.15087891 417.28369141 C-206.23983262 371.26333951 -218.48727254 312.61622645 -211.9453125 255.71582031 C-206.11126234 212.91408692 -188.65950017 173.3509722 -158.89453125 141.9296875 C-158.01410156 140.98480469 -157.13367188 140.03992188 -156.2265625 139.06640625 C-130.56657891 112.0888312 -94.7121084 95.51675582 -58.5078125 88.65625 C-55.07858433 88.13092846 -55.07858433 88.13092846 -52.89453125 86.9296875 C-68.67089197 74.51503458 -84.7326314 62.52872505 -101.109375 50.91796875 C-103.39630952 49.28536052 -105.65654227 47.62840203 -107.89453125 45.9296875 C-88.51109416 36.53442152 -64.75608403 38.43996445 -44.76953125 45.1171875 C-27.96963859 51.56680146 -15.36622219 60.98035734 -2.89453125 73.9296875 C-1.44656523 54.84871308 -10.67762629 39.28176132 -19.73046875 23.13671875 C-22.2025881 18.44964682 -22.5170664 14.12340929 -21.89453125 8.9296875 C-17.65236616 -0.0637025 -9.2639973 -3.42555366 0 0 Z " fill="#163A3E" transform="translate(285.89453125,222.0703125)"/>
<path d="M0 0 C1.12019531 0.54527344 2.24039063 1.09054687 3.39453125 1.65234375 C37.95256374 19.41191305 62.75818294 50.82358161 74.60546875 87.51171875 C75.07249645 89.00713219 75.5376003 90.50314906 76 92 C76.32613281 93.01707031 76.65226562 94.03414063 76.98828125 95.08203125 C87.96303984 133.52182674 81.90944104 176.80931717 63.04443359 211.69311523 C56.75042848 222.87428543 48.79503594 232.70766801 40 242 C39.12988281 242.94617188 38.25976562 243.89234375 37.36328125 244.8671875 C29.48733773 253.24008348 20.62088298 259.7544626 11 266 C10.40993164 266.38671875 9.81986328 266.7734375 9.21191406 267.171875 C-22.42268646 287.55984872 -62.74420345 291.88572094 -99.0625 284.6875 C-138.11648093 275.82167005 -172.8026582 251.98583015 -194.22558594 218.05908203 C-201.98734588 205.4155339 -207.7614846 192.01383844 -211.8125 177.75 C-212.0074707 177.06631348 -212.20244141 176.38262695 -212.40332031 175.67822266 C-215.71436225 163.30707215 -216.37148958 151.09736163 -216.3125 138.375 C-216.31100952 137.58074615 -216.30951904 136.78649231 -216.3079834 135.96817017 C-216.26788196 124.08303199 -215.75900863 112.60727003 -213 101 C-212.70996094 99.71351563 -212.41992188 98.42703125 -212.12109375 97.1015625 C-205.68764764 70.99092348 -193.46744394 48.54113254 -175 29 C-174.20335937 28.12730469 -173.40671875 27.25460937 -172.5859375 26.35546875 C-129.19277902 -19.46298711 -55.27404807 -26.93819058 0 0 Z " fill="#F0F0EF" transform="translate(365,382)"/>
<path d="M0 0 C1.17506607 -0.01859573 1.17506607 -0.01859573 2.37387085 -0.03756714 C35.85008142 -0.47646859 63.48721003 15.64992651 87.03125 38.21875 C91.52768207 42.6416423 95.46673356 47.39545021 99.25 52.4375 C100.04792969 53.47003906 100.84585937 54.50257813 101.66796875 55.56640625 C130.84316535 94.1199536 141.11898448 146.00245728 135.0625 193.375 C129.6286251 231.16915949 115.73540901 266.8756289 91.25 296.4375 C90.76885742 297.02015625 90.28771484 297.6028125 89.79199219 298.203125 C56.49694964 338.28564567 9.67777345 362.70093982 -42.08203125 369.0234375 C-50.54356842 369.79608366 -59.07307204 369.68191161 -67.5625 369.6875 C-68.48140015 369.68817474 -69.40030029 369.68884949 -70.3470459 369.68954468 C-83.71012907 369.6739411 -96.64735787 369.28529648 -109.75 366.4375 C-110.58724609 366.26589355 -111.42449219 366.09428711 -112.28710938 365.91748047 C-150.56529671 357.97950945 -186.40007666 341.74705918 -214.75 314.4375 C-215.28334961 313.92993164 -215.81669922 313.42236328 -216.36621094 312.89941406 C-224.66386439 304.97198497 -232.13727658 296.82129517 -238.75 287.4375 C-239.37600098 286.55408936 -239.37600098 286.55408936 -240.01464844 285.65283203 C-270.87195992 241.72612935 -281.80616967 186.41160063 -273.29345703 133.60546875 C-267.19345126 99.33761692 -253.12892665 67.35761433 -229.75 41.4375 C-229.06421875 40.62023437 -228.3784375 39.80296875 -227.671875 38.9609375 C-210.47874481 18.62272252 -183.96128769 5.01936635 -157.75 1.4375 C-153.66189113 1.14749764 -149.5974155 1.10381124 -145.5 1.125 C-144.34830322 1.12991455 -143.19660645 1.1348291 -142.01000977 1.13989258 C-119.8088871 1.42972447 -96.62570906 2.55450402 -76.1875 11.9375 C-72.79779409 13.36992914 -71.11245568 13.5805932 -67.6796875 12.25 C-66.89424561 11.96189453 -66.10880371 11.67378906 -65.29956055 11.37695312 C-64.45820557 11.06693359 -63.61685059 10.75691406 -62.75 10.4375 C-41.58770169 3.56710445 -22.18417441 0.20447385 0 0 Z M-173.75 68.4375 C-174.62269531 69.23414063 -175.49539062 70.03078125 -176.39453125 70.8515625 C-199.5335322 92.76575224 -213.44685199 124.14187808 -217.75 155.4375 C-217.92055908 156.66218994 -218.09111816 157.88687988 -218.2668457 159.14868164 C-218.77639768 163.26264557 -218.92771276 167.35326643 -218.953125 171.49609375 C-218.95882507 172.24351334 -218.96452515 172.99093292 -218.97039795 173.76100159 C-218.9797838 175.33666601 -218.98635616 176.9123495 -218.99023438 178.48803711 C-218.99984904 180.83810082 -219.03089534 183.18725341 -219.0625 185.53710938 C-219.16000119 199.35407051 -217.4348405 212.70752841 -213.0625 225.875 C-212.80758789 226.65593018 -212.55267578 227.43686035 -212.29003906 228.24145508 C-205.43442827 248.62604451 -195.37933849 266.64053889 -180.75 282.4375 C-180.25129395 282.98003418 -179.75258789 283.52256836 -179.23876953 284.08154297 C-157.87230766 307.06616541 -128.35963162 323.91640898 -97.25 329.0625 C-96.51152832 329.18729736 -95.77305664 329.31209473 -95.01220703 329.44067383 C-55.85376843 335.9212105 -15.60186592 326.89249358 16.8203125 303.953125 C49.10997216 280.16867772 71.0899619 245.11687346 77.25 205.4375 C83.19842217 166.13483319 75.73571766 123.47069132 52.3125 90.6875 C50.97320498 88.92609255 49.61892355 87.17598085 48.25 85.4375 C47.55132812 84.53515625 46.85265625 83.6328125 46.1328125 82.703125 C22.6288617 53.09316563 -12.67835534 33.4287968 -50.34277344 29.00415039 C-96.52135474 24.49585833 -139.76376506 36.31864061 -173.75 68.4375 Z " fill="#DE4347" transform="translate(367.75,338.5625)"/>
<path d="M0 0 C1.20400955 0.00581589 1.20400955 0.00581589 2.43234253 0.01174927 C3.34392624 0.01922684 3.34392624 0.01922684 4.27392578 0.02685547 C4.2753508 0.60457199 4.27677582 1.18228851 4.27824402 1.7775116 C4.29794709 7.79641049 4.35223331 13.81429605 4.42651367 19.83276367 C4.44969523 22.0781324 4.46408974 24.32360988 4.46948242 26.5690918 C4.47877048 29.7991922 4.51976001 33.02758156 4.56689453 36.25732422 C4.56099556 37.76071602 4.56099556 37.76071602 4.55497742 39.29447937 C4.65330804 44.00298131 4.71946689 46.29502487 7.63061523 50.13745117 C10.18896444 52.16209229 10.18896444 52.16209229 13.27392578 53.02685547 C13.27392578 84.70685547 13.27392578 116.38685547 13.27392578 149.02685547 C3.62686696 151.43862017 3.62686696 151.43862017 0.27392578 150.02685547 C-1.94625941 148.2093769 -3.97069944 146.30100081 -5.72607422 144.02685547 C-5.72607422 143.36685547 -5.72607422 142.70685547 -5.72607422 142.02685547 C-6.38607422 142.02685547 -7.04607422 142.02685547 -7.72607422 142.02685547 C-8.98599243 140.75805664 -8.98599243 140.75805664 -10.52148438 138.88232422 C-19.06862919 128.84335311 -28.64321716 119.65722253 -37.91261864 110.29187012 C-41.36302109 106.8055587 -44.80391038 103.31087942 -48.22412109 99.79492188 C-51.55157433 96.37466183 -54.9005939 92.97698451 -58.26601028 89.59408569 C-59.53922301 88.30680282 -60.80466128 87.01178035 -62.06190109 85.70889282 C-63.82054114 83.88948629 -65.60555338 82.10051474 -67.39941406 80.31591797 C-67.90775284 79.77679276 -68.41609161 79.23766754 -68.93983459 78.6822052 C-72.01138445 75.69575821 -74.26242744 74.69095645 -78.43789673 74.61816406 C-82.2523332 74.7884659 -84.74790673 75.49992548 -87.72607422 78.02685547 C-89.97004852 81.72298565 -90.11188186 84.41068932 -89.51953125 88.62353516 C-87.95425559 93.36463472 -84.25915953 96.34960218 -80.66357422 99.65185547 C-79.92429687 100.36341797 -79.18501953 101.07498047 -78.42333984 101.80810547 C-75.69796673 104.411874 -72.95091477 106.97852958 -70.0867157 109.42996216 C-63.70482791 114.90709488 -57.73186127 120.78297422 -51.75341797 126.69091797 C-51.19684572 127.24091839 -50.64027348 127.79091881 -50.0668354 128.35758591 C-47.13384643 131.25824983 -44.20475849 134.16279827 -41.27807617 137.06982422 C-38.86028153 139.46967711 -36.43421242 141.86068436 -34.00073242 144.24462891 C-31.0475412 147.13781513 -28.10917176 150.04528652 -25.18097115 152.96375656 C-24.0660601 154.07009966 -22.94601511 155.17129385 -21.82081413 156.26716995 C-20.25529008 157.79398949 -18.70954769 159.33845706 -17.16723633 160.88867188 C-15.84108559 162.19936142 -15.84108559 162.19936142 -14.48814392 163.53652954 C-12.72607422 166.02685547 -12.72607422 166.02685547 -12.93360901 168.64804077 C-13.19512253 169.43304962 -13.45663605 170.21805847 -13.72607422 171.02685547 C-14.54972409 182.08536771 -13.5268883 190.62464069 -6.47607422 199.40185547 C-0.67520825 205.53667321 5.10991732 206.98585335 13.27392578 209.02685547 C13.27392578 240.04685547 13.27392578 271.06685547 13.27392578 303.02685547 C10.96392578 304.01685547 8.65392578 305.00685547 6.27392578 306.02685547 C5.06439183 308.44592337 5.1171267 310.04851855 5.06860352 312.75195312 C5.04865829 313.73281891 5.02871307 314.71368469 5.00816345 315.72427368 C4.99145096 316.7857663 4.97473846 317.84725891 4.95751953 318.94091797 C4.93673843 320.02569427 4.91595734 321.11047058 4.89454651 322.2281189 C4.82901945 325.70263168 4.77015131 329.17722171 4.71142578 332.65185547 C4.66824357 335.00342604 4.62462938 337.35498873 4.58056641 339.70654297 C4.47333485 345.47989817 4.37157434 351.25333067 4.27392578 357.02685547 C-37.08328326 357.62623531 -77.6420935 334.76178387 -106.72607422 307.02685547 C-107.55751953 306.25986328 -108.38896484 305.49287109 -109.24560547 304.70263672 C-123.02950205 291.58678036 -132.85528808 275.72060594 -141.72607422 259.02685547 C-142.1038501 258.3269751 -142.48162598 257.62709473 -142.87084961 256.90600586 C-145.11813754 251.96813112 -142.96771243 244.74415241 -142.23730469 239.55322266 C-140.75046552 228.86980066 -140.30435778 218.30300168 -140.10107422 207.52685547 C-140.06275723 205.81720318 -140.0236984 204.10756735 -139.98388672 202.39794922 C-139.88943654 198.27439004 -139.80488684 194.15074193 -139.72607422 190.02685547 C-138.41251953 189.98947266 -137.09896484 189.95208984 -135.74560547 189.91357422 C-134.00990057 189.8478989 -132.27422475 189.7814521 -130.53857422 189.71435547 C-129.67425781 189.69179688 -128.80994141 189.66923828 -127.91943359 189.64599609 C-121.30727669 189.38097206 -121.30727669 189.38097206 -115.72607422 186.02685547 C-114.52004977 183.05903495 -114.4307101 180.20341298 -114.72607422 177.02685547 C-116.78946635 173.48961182 -117.83865987 172.32266025 -121.72607422 171.02685547 C-123.35174501 170.87970348 -124.98194279 170.7796368 -126.61279297 170.71044922 C-127.55058594 170.66855469 -128.48837891 170.62666016 -129.45458984 170.58349609 C-130.43105469 170.54417969 -131.40751953 170.50486328 -132.41357422 170.46435547 C-133.40164063 170.42117188 -134.38970703 170.37798828 -135.40771484 170.33349609 C-137.84702968 170.22743893 -140.28644535 170.12537833 -142.72607422 170.02685547 C-142.84611816 169.48496582 -142.96616211 168.94307617 -143.08984375 168.38476562 C-143.66732321 165.80485034 -144.25697471 163.22799578 -144.85107422 160.65185547 C-145.06900635 159.70536133 -145.28693848 158.75886719 -145.51147461 157.78369141 C-147.19420609 150.71231824 -149.29648879 143.89621822 -152.02148438 137.15429688 C-155.23881133 128.51506385 -151.52837542 120.79427023 -148.22607422 112.65185547 C-147.87786621 111.79188965 -147.5296582 110.93192383 -147.17089844 110.04589844 C-141.04570206 95.26828903 -133.52687475 81.66846775 -123.72607422 69.02685547 C-122.99775391 68.08712891 -122.26943359 67.14740234 -121.51904297 66.17919922 C-112.60293833 55.01398711 -103.18070863 44.62939383 -91.72607422 36.02685547 C-90.92580811 35.42212402 -90.92580811 35.42212402 -90.109375 34.80517578 C-66.95237346 17.4157045 -40.49355056 5.26695969 -11.72607422 1.02685547 C-10.60974609 0.83865234 -9.49341797 0.65044922 -8.34326172 0.45654297 C-5.48289121 0.11675814 -2.86527534 -0.01800413 0 0 Z " fill="#F0F0F0" transform="translate(663.72607421875,295.97314453125)"/>
<path d="M0 0 C3.02519989 2.05971056 4.66926776 3.51573824 5.48046875 7.15625 C5.6385644 9.71996329 5.72171087 11.5207109 5 14 C2.84375 16.421875 2.84375 16.421875 0 19 C-0.98295328 19.93104488 -1.96468965 20.86337591 -2.9453125 21.796875 C-8.90607233 27.35389569 -14.96260144 32.6844655 -21.3203125 37.7890625 C-24.13253315 40.1093495 -26.81797263 42.53071134 -29.5 45 C-33.94727112 49.09351091 -38.54717463 52.92442499 -43.25 56.71875 C-46.08099578 59.06718968 -48.79383598 61.50909902 -51.5 64 C-55.8663581 68.01482927 -60.36536407 71.79184955 -64.98046875 75.515625 C-69.22830687 79.01061212 -73.37523453 82.61909632 -77.48730469 86.27270508 C-81.16539818 89.51738358 -84.90589371 92.28399401 -89 95 C-90.98 96.98 -90.98 96.98 -93 99 C-92.67 103.29 -92.34 107.58 -92 112 C-58.01 112 -24.02 112 11 112 C11.99 114.31 12.98 116.62 14 119 C17.85604425 121.57069617 21.12746343 121.35065056 25.60546875 121.4140625 C26.44467361 121.43342865 27.28387848 121.4527948 28.14851379 121.4727478 C30.82807258 121.53251213 33.5076744 121.57891612 36.1875 121.625 C38.00457599 121.6631827 39.82163394 121.70223461 41.63867188 121.7421875 C46.09230132 121.83821103 50.54601551 121.92225359 55 122 C55.46884914 164.83904143 33.56372739 206.76483638 4.35864258 236.97338867 C-4.15787042 245.63724329 -12.79693098 253.39801417 -23 260 C-23.59167969 260.38800781 -24.18335938 260.77601563 -24.79296875 261.17578125 C-51.14880286 278.26991227 -82.38672861 289.47419907 -114 289 C-114.00142502 288.4097554 -114.00285004 287.8195108 -114.00431824 287.21138 C-114.02401917 281.06273041 -114.07830102 274.91507305 -114.15258789 268.7668457 C-114.17577142 266.47297283 -114.19016441 264.17899345 -114.19555664 261.88500977 C-114.2048432 258.58542484 -114.24582988 255.28751586 -114.29296875 251.98828125 C-114.2890361 250.96414627 -114.28510345 249.94001129 -114.28105164 248.88484192 C-114.3774435 244.17093129 -114.44388168 241.75733172 -117.29418945 237.87573242 C-120.03240858 235.74158484 -120.03240858 235.74158484 -124 235 C-124 203.98 -124 172.96 -124 141 C-126.64 140.67 -129.28 140.34 -132 140 C-140.55374002 136.89076221 -146.61421892 130.51618245 -150.4375 122.375 C-152.80418605 115.85144229 -153.49202083 107.27014893 -151.17884827 100.64987183 C-150.70219889 97.80647424 -150.70219889 97.80647424 -152.95188904 95.31985474 C-153.91916603 94.33211769 -154.90341064 93.36083356 -155.90014648 92.40283203 C-156.43335007 91.867146 -156.96655365 91.33145996 -157.51591492 90.77954102 C-159.28696338 89.00757254 -161.07848159 87.25794171 -162.87109375 85.5078125 C-164.11012767 84.27743757 -165.34790867 83.04579973 -166.58448792 81.81295776 C-169.85125166 78.56345122 -173.13605418 75.33276727 -176.42449951 72.10522461 C-179.08733912 69.48574163 -181.73734187 66.85348955 -184.38665676 64.22033882 C-187.56479404 61.06194366 -190.7482491 57.90893721 -193.93359375 54.7578125 C-194.53387327 54.16395878 -195.13415279 53.57010506 -195.7526226 52.95825577 C-202.00813179 46.77991658 -208.29320116 40.69279969 -215 35 C-227.56984849 23.92131255 -227.56984849 23.92131255 -228.5 18.125 C-228.39955563 13.8677038 -226.85594958 11.16470088 -224 8 C-219.78133216 5.46067136 -215.80705295 5.08517795 -211 6 C-208.18999946 7.58848124 -206.13552552 9.70030688 -203.91967773 12.02685547 C-203.27462784 12.66737854 -202.62957794 13.30790161 -201.96498108 13.96783447 C-199.84889152 16.08001288 -197.7666138 18.22243041 -195.68359375 20.3671875 C-194.21854909 21.84394882 -192.75164718 23.31886974 -191.28297424 24.79202271 C-188.21577122 27.8775169 -185.16361011 30.97687082 -182.12280273 34.08837891 C-178.21737224 38.08452895 -174.28841341 42.05643441 -170.34968472 46.01974297 C-166.59931613 49.79481859 -162.85924902 53.58002272 -159.12109375 57.3671875 C-158.0453349 58.45540613 -158.0453349 58.45540613 -156.94784355 59.56560898 C-154.93147333 61.60971375 -152.92240223 63.66069444 -150.91577148 65.71435547 C-150.31276215 66.32431366 -149.70975281 66.93427185 -149.08847046 67.56271362 C-145 71.7699628 -145 71.7699628 -145 74 C-144.34 74 -143.68 74 -143 74 C-141.90122767 75.32490489 -140.84486711 76.68522306 -139.8125 78.0625 C-137.9869246 80.28185045 -137.9869246 80.28185045 -136 82 C-133.07651367 82.14009697 -133.07651367 82.14009697 -131.140625 81.515625 C-122.89065971 79.52840708 -114.7112234 80.86323116 -107 84 C-106.40574219 83.45472656 -105.81148437 82.90945313 -105.19921875 82.34765625 C-100.82362473 78.36675033 -96.4112881 74.47184202 -91.8125 70.75 C-86.03436349 66.07052325 -80.43101044 61.2058418 -74.82421875 56.32421875 C-71.23232055 53.19707968 -67.61975649 50.09481234 -64 47 C-58.5187908 42.31099379 -53.06261447 37.59391017 -47.61645508 32.86425781 C-42.74191541 28.63412304 -37.83831542 24.4388883 -32.92895508 20.24926758 C-29.46369373 17.28264769 -26.05830061 14.261795 -22.6875 11.1875 C-8.21157094 -1.94850836 -8.21157094 -1.94850836 0 0 Z " fill="#1A9287" transform="translate(801,364)"/>
<path d="M0 0 C7.79404476 -0.20577498 15.0965593 0.20578498 22.75 1.6875 C23.69955566 1.86684082 24.64911133 2.04618164 25.62744141 2.23095703 C33.98875875 3.87615301 41.97418483 6.16444586 50 9 C50.64598145 9.21881836 51.29196289 9.43763672 51.95751953 9.66308594 C73.07280296 16.82450867 92.23609861 28.33158628 109 43 C109.78503906 43.68449219 109.78503906 43.68449219 110.5859375 44.3828125 C118.17228529 51.04312722 124.85689358 57.95355634 131 66 C131.72574219 66.91007812 132.45148438 67.82015625 133.19921875 68.7578125 C152.15064949 93.03416532 163.7340715 121.79176996 169 152 C169.29777344 153.65902344 169.29777344 153.65902344 169.6015625 155.3515625 C170.13575911 160.24312755 170.07999389 165.08481988 170 170 C168.3125769 170.01401855 168.3125769 170.01401855 166.59106445 170.02832031 C162.40674631 170.06827255 158.22315937 170.13404552 154.03930664 170.20751953 C152.23048311 170.23569889 150.42153714 170.25692855 148.61254883 170.27099609 C146.00799006 170.29246814 143.40489866 170.33913811 140.80078125 170.390625 C139.59268547 170.39246796 139.59268547 170.39246796 138.36018372 170.39434814 C134.5415742 170.49337058 132.4267701 170.74823378 129.07495117 172.72558594 C126.58565973 175.1866394 126.58565973 175.1866394 125 180 C91.01 180 57.02 180 22 180 C20 167 20 167 22.41015625 163.4921875 C24.140625 162.15039063 24.140625 162.15039063 26.0625 160.875 C27.37674069 159.88339355 28.69053328 158.89119295 30.00390625 157.8984375 C30.67566895 157.41600586 31.34743164 156.93357422 32.03955078 156.43652344 C34.99076238 154.27401671 37.73424041 151.89181103 40.5 149.5 C41.57322394 148.59127172 42.64745115 147.68372706 43.72265625 146.77734375 C48.31721935 142.88942418 52.88323318 138.96827321 57.44921875 135.046875 C59.84388299 132.9903355 62.24256169 130.93862686 64.64453125 128.890625 C69.88064468 124.42228669 75.09567332 119.94582096 80.1875 115.3125 C83.52227114 112.28287132 86.93287639 109.39391908 90.4375 106.5625 C96.16517602 101.9269656 101.57488942 96.9825789 107 92 C108.51483356 90.61839285 110.03499557 89.24258519 111.5625 87.875 C112.18253906 87.31554687 112.80257812 86.75609375 113.44140625 86.1796875 C115 85 115 85 117 85 C118.35187286 80.94438142 118.5367205 77.24009197 118 73 C115.89867166 69.63787465 114.42216489 69.12508589 110.625 68 C104.2743944 68 100.25703627 72.51192205 95.8125 76.6875 C92.13188136 80.08920844 88.4031733 83.35624239 84.5 86.5 C80.71539666 89.55348679 77.07792463 92.70668301 73.5 96 C69.0301488 100.11378909 64.40955107 103.97087297 59.68359375 107.78515625 C57.05291443 109.95632827 54.52057576 112.20241357 52 114.5 C47.70008209 118.41891252 43.24080453 122.09170869 38.71875 125.75 C36.07852271 127.93501569 33.5327028 130.19171391 31 132.5 C26.6624771 136.45196531 22.18686049 140.1846727 17.59375 143.8359375 C14.99500468 145.92651263 14.99500468 145.92651263 12.84375 148.2265625 C10.95524862 150.16752225 9.39041925 151.72383992 7 153 C4.49597326 152.76994807 2.71858013 152.10760868 0.46875 151 C-2.80491274 149.55059039 -2.80491274 149.55059039 -10 149 C-10 117.32 -10 85.64 -10 53 C-8.02 52.34 -6.04 51.68 -4 51 C-1.17908698 48.21116054 -0.62012876 46.13757991 -0.56762695 42.23144531 C-0.54783279 41.29077209 -0.52803864 40.35009888 -0.50764465 39.38092041 C-0.50125473 38.37349792 -0.49486481 37.36607544 -0.48828125 36.328125 C-0.47033005 35.29057068 -0.45237885 34.25301636 -0.43388367 33.184021 C-0.37973623 29.8727219 -0.34587015 26.56156733 -0.3125 23.25 C-0.27933091 21.00388612 -0.24484164 18.75779132 -0.20898438 16.51171875 C-0.12400729 11.00794209 -0.05567613 5.50414683 0 0 Z " fill="#DF4347" transform="translate(687,296)"/>
<path d="M0 0 C3.02519989 2.05971056 4.66926776 3.51573824 5.48046875 7.15625 C5.6385644 9.71996329 5.72171087 11.5207109 5 14 C2.84375 16.421875 2.84375 16.421875 0 19 C-0.98295328 19.93104488 -1.96468965 20.86337591 -2.9453125 21.796875 C-8.90607233 27.35389569 -14.96260144 32.6844655 -21.3203125 37.7890625 C-24.13253315 40.1093495 -26.81797263 42.53071134 -29.5 45 C-33.94727112 49.09351091 -38.54717463 52.92442499 -43.25 56.71875 C-46.08099578 59.06718968 -48.79383598 61.50909902 -51.5 64 C-55.8663581 68.01482927 -60.36536407 71.79184955 -64.98046875 75.515625 C-69.22830687 79.01061212 -73.37523453 82.61909632 -77.48730469 86.27270508 C-81.16539818 89.51738358 -84.90589371 92.28399401 -89 95 C-91.42501749 96.73119372 -91.42501749 96.73119372 -93 99 C-93.35658629 102.40985637 -93.00050623 105.30930376 -92.46484375 108.69140625 C-91.34137564 116.68785577 -93.49051845 123.55964761 -98.234375 129.99609375 C-103.84919956 136.36867118 -110.60366667 140.44530076 -119.078125 141.31640625 C-129.51524812 141.69262813 -136.56174503 139.08066429 -144.20703125 132 C-150.15583018 125.36430272 -152.14366084 118.80510349 -152.125 110.0625 C-152.12757813 108.85722656 -152.13015625 107.65195312 -152.1328125 106.41015625 C-152 103 -152 103 -151.18544006 100.63668823 C-150.70188802 97.80487063 -150.70188802 97.80487063 -152.95188904 95.31985474 C-153.91916603 94.33211769 -154.90341064 93.36083356 -155.90014648 92.40283203 C-156.43335007 91.867146 -156.96655365 91.33145996 -157.51591492 90.77954102 C-159.28696338 89.00757254 -161.07848159 87.25794171 -162.87109375 85.5078125 C-164.11012767 84.27743757 -165.34790867 83.04579973 -166.58448792 81.81295776 C-169.85125166 78.56345122 -173.13605418 75.33276727 -176.42449951 72.10522461 C-179.08733912 69.48574163 -181.73734187 66.85348955 -184.38665676 64.22033882 C-187.56479404 61.06194366 -190.7482491 57.90893721 -193.93359375 54.7578125 C-194.53387327 54.16395878 -195.13415279 53.57010506 -195.7526226 52.95825577 C-202.00813179 46.77991658 -208.29320116 40.69279969 -215 35 C-227.56984849 23.92131255 -227.56984849 23.92131255 -228.5 18.125 C-228.39955563 13.8677038 -226.85594958 11.16470088 -224 8 C-219.78133216 5.46067136 -215.80705295 5.08517795 -211 6 C-208.18999946 7.58848124 -206.13552552 9.70030688 -203.91967773 12.02685547 C-203.27462784 12.66737854 -202.62957794 13.30790161 -201.96498108 13.96783447 C-199.84889152 16.08001288 -197.7666138 18.22243041 -195.68359375 20.3671875 C-194.21854909 21.84394882 -192.75164718 23.31886974 -191.28297424 24.79202271 C-188.21577122 27.8775169 -185.16361011 30.97687082 -182.12280273 34.08837891 C-178.21737224 38.08452895 -174.28841341 42.05643441 -170.34968472 46.01974297 C-166.59931613 49.79481859 -162.85924902 53.58002272 -159.12109375 57.3671875 C-158.0453349 58.45540613 -158.0453349 58.45540613 -156.94784355 59.56560898 C-154.93147333 61.60971375 -152.92240223 63.66069444 -150.91577148 65.71435547 C-150.31276215 66.32431366 -149.70975281 66.93427185 -149.08847046 67.56271362 C-145 71.7699628 -145 71.7699628 -145 74 C-144.34 74 -143.68 74 -143 74 C-141.90122767 75.32490489 -140.84486711 76.68522306 -139.8125 78.0625 C-137.9869246 80.28185045 -137.9869246 80.28185045 -136 82 C-133.07651367 82.14009697 -133.07651367 82.14009697 -131.140625 81.515625 C-122.89065971 79.52840708 -114.7112234 80.86323116 -107 84 C-106.40574219 83.45472656 -105.81148437 82.90945313 -105.19921875 82.34765625 C-100.82362473 78.36675033 -96.4112881 74.47184202 -91.8125 70.75 C-86.03436349 66.07052325 -80.43101044 61.2058418 -74.82421875 56.32421875 C-71.23232055 53.19707968 -67.61975649 50.09481234 -64 47 C-58.5187908 42.31099379 -53.06261447 37.59391017 -47.61645508 32.86425781 C-42.74191541 28.63412304 -37.83831542 24.4388883 -32.92895508 20.24926758 C-29.46369373 17.28264769 -26.05830061 14.261795 -22.6875 11.1875 C-8.21157094 -1.94850836 -8.21157094 -1.94850836 0 0 Z " fill="#163A3E" transform="translate(801,364)"/>
<path d="M0 0 C3.29687046 2.78965962 3.92003197 4.55654092 4.6875 8.8125 C4.49748239 12.43083978 3.37269632 14.12282665 0.94921875 16.765625 C0.31314697 17.46147705 -0.3229248 18.1573291 -0.97827148 18.87426758 C-4.22272504 22.28562576 -7.52591767 25.62895298 -10.875 28.9375 C-11.60315918 29.66187256 -12.33131836 30.38624512 -13.08154297 31.13256836 C-16.16056951 34.19542424 -19.24558323 37.25222311 -22.33007812 40.30957031 C-24.59715458 42.55844117 -26.86112966 44.81040238 -29.125 47.0625 C-29.81062012 47.73982178 -30.49624023 48.41714355 -31.20263672 49.11499023 C-34.46019868 52.35618855 -37.59716931 55.63986158 -40.59399414 59.12475586 C-43.64644668 62.66377738 -46.90468213 65.81485497 -50.37109375 68.94140625 C-51.53528731 70.02967572 -52.69733606 71.12024339 -53.85742188 72.21289062 C-55.64609804 73.8970003 -57.44118153 75.56577774 -59.27612305 77.19946289 C-67.11369284 83.82507952 -67.11369284 83.82507952 -70.72460938 93.00732422 C-70.78940941 95.64868494 -70.5713771 98.05685116 -70.28295898 100.70288086 C-69.72681571 107.18322155 -72.93997982 111.88100647 -76.8125 116.8125 C-81.30900061 121.71880826 -86.61515793 124.46151062 -93.2265625 125.2734375 C-100.93971948 125.60005327 -107.03001225 123.51866283 -112.85546875 118.35546875 C-117.11401741 113.69735256 -120.12099789 109.11661236 -119.87109375 102.6796875 C-119.51749039 95.50104048 -119.51749039 95.50104048 -122.34521484 89.17333984 C-125.92237955 85.47477581 -129.97675838 82.38982016 -134.12744141 79.36474609 C-136.52735541 77.61565622 -138.82323187 75.75065569 -141.125 73.875 C-141.90101563 73.26398438 -142.67703125 72.65296875 -143.4765625 72.0234375 C-147.10651396 69.11273339 -150.63656423 66.08816473 -154.17749023 63.0703125 C-157.4667725 60.27464099 -160.79639691 57.54742347 -164.1875 54.875 C-165.79445388 53.58680254 -167.39856463 52.29505143 -169 51 C-169.92554688 50.25878906 -170.85109375 49.51757812 -171.8046875 48.75390625 C-178.64790225 43.00599358 -178.64790225 43.00599358 -180.3125 38.25 C-179.87189536 33.66771169 -178.39382875 31.39382875 -175.1875 28.1875 C-172.07458499 26.49763185 -170.51750187 26.3912016 -167 27 C-164.08096189 28.69368365 -161.57798998 30.83214479 -159 33 C-158.22140625 33.63035156 -157.4428125 34.26070313 -156.640625 34.91015625 C-154.31642515 36.79416673 -152.0053022 38.69310905 -149.69873047 40.59863281 C-147.79291219 42.17083703 -145.88295421 43.73792964 -143.97265625 45.3046875 C-137.2976606 50.78382221 -130.64116391 56.28041313 -124.0625 61.875 C-122.0428325 63.58471698 -120.02136812 65.29229245 -118 67 C-117.04867187 67.81082031 -116.09734375 68.62164062 -115.1171875 69.45703125 C-114.23289062 70.19308594 -113.34859375 70.92914063 -112.4375 71.6875 C-111.67308594 72.33074219 -110.90867187 72.97398437 -110.12109375 73.63671875 C-107.85941798 75.36045286 -107.85941798 75.36045286 -104 75 C-103.01 74.67 -102.02 74.34 -101 74 C-98.87672644 73.90476082 -96.75040289 73.87013638 -94.625 73.875 C-92.94277344 73.87113281 -92.94277344 73.87113281 -91.2265625 73.8671875 C-88 74 -88 74 -85.55062866 74.71702576 C-82.95934935 75.27553336 -82.95934935 75.27553336 -80.96524048 73.6934967 C-80.30462616 73.02257492 -79.64401184 72.35165314 -78.96337891 71.66040039 C-77.82662216 70.5278054 -77.82662216 70.5278054 -76.66690063 69.37232971 C-75.86158905 68.53918747 -75.05627747 67.70604523 -74.2265625 66.84765625 C-73.3845932 65.99956894 -72.5426239 65.15148163 -71.67514038 64.2776947 C-68.97745171 61.55300697 -66.30151668 58.80797182 -63.625 56.0625 C-61.82945326 54.2454313 -60.03259283 52.42965974 -58.234375 50.61523438 C-51.54248859 43.83854304 -44.88474541 37.08966865 -38.65869141 29.87934875 C-35.97896801 26.84313912 -33.12944232 23.98644685 -30.26171875 21.12890625 C-29.65487747 20.52110825 -29.04803619 19.91331024 -28.42280579 19.28709412 C-27.15606271 18.01967731 -25.88808327 16.75349507 -24.61889648 15.48852539 C-22.67118197 13.54622735 -20.7289407 11.5985686 -18.78710938 9.65039062 C-17.54980017 8.41374125 -16.31218132 7.17740158 -15.07421875 5.94140625 C-14.49403488 5.35919815 -13.91385101 4.77699005 -13.31608582 4.17713928 C-8.51808283 -0.59274347 -6.77099457 -1.634378 0 0 Z " fill="#14393C" transform="translate(392,419)"/>
<path d="M0 0 C0.639375 -0.01289062 1.27875 -0.02578125 1.9375 -0.0390625 C5.24715405 1.02654581 6.8001433 2.98227007 9 5.625 C9.59936523 8.88305664 9.59936523 8.88305664 9.55859375 12.53515625 C9.55150391 13.85451172 9.54441406 15.17386719 9.53710938 16.53320312 C9.52059326 17.21519775 9.50407715 17.89719238 9.48706055 18.59985352 C9.43755896 20.68501627 9.42557151 22.76781759 9.41992188 24.85351562 C9.28007366 36.29309953 9.28007366 36.29309953 7 39.625 C3.83181244 41.73712504 1.86780748 41.95656464 -1.8671875 42.18359375 C-5.29500633 41.28583168 -6.77242781 39.31529476 -9 36.625 C-9.64697266 33.29101562 -9.64697266 33.29101562 -9.6640625 29.53125 C-9.66884613 28.86210571 -9.67362976 28.19296143 -9.67855835 27.50354004 C-9.68194656 26.09494666 -9.67281922 24.68627348 -9.65185547 23.27783203 C-9.62506289 21.13004114 -9.65162766 18.98747347 -9.68359375 16.83984375 C-9.68028945 15.46613438 -9.67388276 14.09242824 -9.6640625 12.71875 C-9.65842285 11.47802734 -9.6527832 10.23730469 -9.64697266 8.95898438 C-8.67507622 3.9506003 -5.42083012 -0.10929093 0 0 Z " fill="#133538" transform="translate(297,606.375)"/>
<path d="M0 0 C3.97245401 0.70936679 5.67231707 1.79731707 8.5 4.625 C10.59723531 8.81947062 9.8088288 14.22212138 9.85009766 18.83642578 C9.86661388 20.18848943 9.89384766 21.54046732 9.93212891 22.89208984 C10.28861355 35.55504448 10.28861355 35.55504448 7.23046875 39.5078125 C3.49044017 42.40780605 3.49044017 42.40780605 0.4375 42.25 C-3.79509682 41.57815923 -5.01129559 41.00963799 -7.5 37.625 C-9.59723531 33.43052938 -8.8088288 28.02787862 -8.85009766 23.41357422 C-8.86661388 22.06151057 -8.89384766 20.70953268 -8.93212891 19.35791016 C-9.28867609 6.6927341 -9.28867609 6.6927341 -6.1953125 2.7421875 C-3.5 0.625 -3.5 0.625 0 0 Z " fill="#123538" transform="translate(296.5,387.375)"/>
<path d="M0 0 C0.69512695 -0.00478363 1.39025391 -0.00956726 2.10644531 -0.01449585 C3.57228872 -0.01788977 5.03820833 -0.00872231 6.50390625 0.01220703 C8.74390886 0.03898967 10.97890266 0.01245251 13.21875 -0.01953125 C14.64584436 -0.01622705 16.07293561 -0.00982058 17.5 0 C19.44132812 0.00845947 19.44132812 0.00845947 21.421875 0.01708984 C24.75 0.6640625 24.75 0.6640625 27.171875 3.01806641 C29.11653208 6.27861613 29.37299344 7.92610185 28.75 11.6640625 C27.171875 14.31225586 27.171875 14.31225586 24.75 16.6640625 C21.421875 17.29516602 21.421875 17.29516602 17.5 17.29296875 C16.80487305 17.29538071 16.10974609 17.29779266 15.39355469 17.30027771 C13.92767619 17.29930065 12.46176016 17.28594001 10.99609375 17.26098633 C8.75653341 17.22666263 6.52091874 17.24033089 4.28125 17.25976562 C2.85414993 17.25286683 1.42706001 17.24319411 0 17.23046875 C-1.29421875 17.21959229 -2.5884375 17.20871582 -3.921875 17.19750977 C-7.77090667 16.58056917 -8.98668954 15.78976987 -11.25 12.6640625 C-11.83478349 8.64367597 -11.74358401 6.50263607 -9.671875 2.98291016 C-6.40212181 -0.14774668 -4.47825152 0.01951429 0 0 Z " fill="#133538" transform="translate(401.25,510.3359375)"/>
<path d="M0 0 C0.67293091 -0.0038269 1.34586182 -0.00765381 2.03918457 -0.01159668 C3.4579417 -0.0143113 4.87674927 -0.00698134 6.29541016 0.00976562 C8.46240203 0.03118725 10.62607951 0.00995462 12.79296875 -0.015625 C14.17448646 -0.01298164 15.5560021 -0.00785647 16.9375 0 C18.18982422 0.00451172 19.44214844 0.00902344 20.73242188 0.01367188 C24.52605866 0.62037903 25.6863275 1.49995064 27.96875 4.53125 C29.14465974 8.21576718 29.30356338 9.81379275 27.65625 13.34375 C25.96875 15.53125 25.96875 15.53125 23.96875 16.53125 C19.58028515 16.78937405 15.18806056 16.8022509 10.79296875 16.82641602 C8.6087369 16.84363187 6.42601825 16.88752034 4.2421875 16.93164062 C2.85157362 16.94176777 1.46094689 16.95028381 0.0703125 16.95703125 C-1.19474121 16.97161377 -2.45979492 16.98619629 -3.76318359 17.0012207 C-7.58240677 16.45198982 -8.73353846 15.56486454 -11.03125 12.53125 C-11.5625 10.53125 -11.5625 10.53125 -11.53125 8.53125 C-11.54671875 7.54125 -11.54671875 7.54125 -11.5625 6.53125 C-9.96944718 0.53387467 -5.50219049 0.01982261 0 0 Z " fill="#153539" transform="translate(177.03125,510.46875)"/>
<path d="M0 0 C2.75329021 1.79562405 4.52627461 3.05254922 6 6 C6.43023798 9.87214182 6.31669086 11.52496371 4.125 14.8125 C1.42055063 17.59649199 0.57733296 17.93464155 -3.3125 18.375 C-7 18 -7 18 -9.9375 16 C-12.23092162 12.66411401 -12.75815509 10.90015906 -12.48046875 6.9375 C-10.87278432 0.45447986 -5.98096831 -0.96122705 0 0 Z " fill="#EFF0EF" transform="translate(682,465)"/>
<path d="M0 0 C0.66 0 1.32 0 2 0 C2.66 3.3 3.32 6.6 4 10 C53.5 10.495 53.5 10.495 104 11 C104.33 10.34 104.66 9.68 105 9 C105 10.32 105 11.64 105 13 C71.01 13 37.02 13 2 13 C1.34 8.71 0.68 4.42 0 0 Z " fill="#F43E3C" transform="translate(707,463)"/>
<path d="M0 0 C-0.969375 0.61875 -1.93875 1.2375 -2.9375 1.875 C-6.02835362 3.65678846 -6.02835362 3.65678846 -7 6 C-7.11840113 7.57206643 -7.17703033 9.14883269 -7.20532227 10.72509766 C-7.22526749 11.70596344 -7.24521271 12.68682922 -7.26576233 13.69741821 C-7.29083107 15.28965714 -7.29083107 15.28965714 -7.31640625 16.9140625 C-7.33718735 17.99883881 -7.35796844 19.08361511 -7.37937927 20.20126343 C-7.44490634 23.67577621 -7.50377447 27.15036624 -7.5625 30.625 C-7.60568221 32.97657058 -7.6492964 35.32813326 -7.69335938 37.6796875 C-7.80059093 43.4530427 -7.90235144 49.2264752 -8 55 C-13.56578651 55.03947366 -17.71873324 54.76042225 -23 53 C-23 52.67 -23 52.34 -23 52 C-18.71 52.33 -14.42 52.66 -10 53 C-10.02094727 51.63794434 -10.04189453 50.27588867 -10.06347656 48.87255859 C-10.13601209 43.80723633 -10.18184941 38.74195977 -10.21972656 33.67626953 C-10.23981107 31.48608676 -10.26708417 29.29595741 -10.30175781 27.10595703 C-10.35041409 23.95331624 -10.37300078 20.80138596 -10.390625 17.6484375 C-10.41127014 16.67321136 -10.43191528 15.69798523 -10.45318604 14.69320679 C-10.45512071 8.79869859 -9.91127015 5.4973266 -6 1 C-2.6 -1.3 -2.6 -1.3 0 0 Z " fill="#F5F7F7" transform="translate(676,598)"/>
<path d="M0 0 C0.85609863 0.11964111 1.71219727 0.23928223 2.59423828 0.36254883 C0.2228247 2.32743437 -2.04430108 4.16033229 -4.73657227 5.66650391 C-7.86642494 7.65526147 -10.34772748 10.05345595 -12.92529297 12.68676758 C-13.42872726 13.19303177 -13.93216156 13.69929596 -14.45085144 14.22090149 C-16.0447792 15.82595101 -17.63157879 17.43784026 -19.21826172 19.05004883 C-20.30308336 20.14491062 -21.38836527 21.23931656 -22.47412109 22.33325195 C-25.12335519 25.0044401 -27.76622249 27.68178166 -30.40576172 30.36254883 C-30.40576172 25.9764198 -27.6416127 24.11160815 -24.71044922 21.16333008 C-24.12538605 20.56828171 -23.54032288 19.97323334 -22.93753052 19.3601532 C-21.69558328 18.1030059 -20.44951811 16.84991558 -19.19970703 15.60058594 C-17.29316714 13.68749687 -15.41187727 11.75177253 -13.53076172 9.8137207 C-12.32130111 8.59545583 -11.11040856 7.37861054 -9.89794922 6.16333008 C-9.05851273 5.29155876 -9.05851273 5.29155876 -8.20211792 4.4021759 C-5.43774421 1.68504257 -3.91553493 0.41681501 0 0 Z " fill="#0B191B" transform="translate(386.40576171875,418.637451171875)"/>
<path d="M0 0 C-0.33 0.99 -0.66 1.98 -1 3 C-8.03905044 3.93854006 -14.90272572 4.10808032 -22 4 C-22 4.66 -22 5.32 -22 6 C-25.3 6 -28.6 6 -32 6 C-31.67 5.01 -31.34 4.02 -31 3 C-30.35973877 2.94465088 -29.71947754 2.88930176 -29.05981445 2.83227539 C-26.1437846 2.57855835 -23.22814766 2.32057051 -20.3125 2.0625 C-18.80139648 1.93198242 -18.80139648 1.93198242 -17.25976562 1.79882812 C-16.28330078 1.71181641 -15.30683594 1.62480469 -14.30078125 1.53515625 C-13.40528564 1.456604 -12.50979004 1.37805176 -11.5871582 1.29711914 C-8.98860725 1.03771704 -8.98860725 1.03771704 -6.41870117 0.46655273 C-4 0 -4 0 0 0 Z " fill="#DBE0E2" transform="translate(343,724)"/>
<path d="M0 0 C2.31 0 4.62 0 7 0 C7 15.18 7 30.36 7 46 C6.67 46 6.34 46 6 46 C6 31.81 6 17.62 6 3 C3.36 3 0.72 3 -2 3 C-1.34 2.01 -0.68 1.02 0 0 Z " fill="#EAEAEA" transform="translate(659,296)"/>
<path d="M0 0 C2.22909871 -0.02714735 4.45829367 -0.04646254 6.6875 -0.0625 C7.92886719 -0.07410156 9.17023438 -0.08570313 10.44921875 -0.09765625 C13.46235454 -0.01478673 16.08275339 0.29160551 19 1 C19 1.33 19 1.66 19 2 C9.33960055 3.26693763 -0.27721582 3.08984092 -10 3 C-10 2.67 -10 2.34 -10 2 C-6.7 1.67 -3.4 1.34 0 1 C0 0.67 0 0.34 0 0 Z " fill="#0C2428" transform="translate(303,725)"/>
<path d="M0 0 C0 0.66 0 1.32 0 2 C-2.5 3.625 -2.5 3.625 -5 5 C-3.02 6.65 -1.04 8.3 1 10 C-2.67034745 10 -4.0999431 8.9247108 -7.1875 7 C-8.08855469 6.443125 -8.98960937 5.88625 -9.91796875 5.3125 C-10.60503906 4.879375 -11.29210937 4.44625 -12 4 C-11 2 -11 2 -8.25 0.875 C-5.29813104 0.08026605 -3.02780163 -0.17810598 0 0 Z " fill="#142B2D" transform="translate(190,265)"/>
<path d="M0 0 C3.45826342 -0.05789006 6.91640293 -0.09355821 10.375 -0.125 C11.35984375 -0.14175781 12.3446875 -0.15851562 13.359375 -0.17578125 C14.77089844 -0.18544922 14.77089844 -0.18544922 16.2109375 -0.1953125 C17.51490479 -0.21102295 17.51490479 -0.21102295 18.84521484 -0.22705078 C21 0 21 0 23 2 C15.63959083 2.79725902 8.40239645 3.12886183 1 3 C0.67 2.01 0.34 1.02 0 0 Z " fill="#1F4246" transform="translate(281,725)"/>
<path d="M0 0 C1.875 1.1875 1.875 1.1875 2.875 3.1875 C0.64728658 3.69393553 -1.58224076 4.1923962 -3.8125 4.6875 C-5.67455078 5.10515625 -5.67455078 5.10515625 -7.57421875 5.53125 C-10.54898218 6.08104126 -13.11868602 6.32545705 -16.125 6.1875 C-13.08974514 4.16399676 -11.93073798 3.86625982 -8.4375 3.5625 C-7.62925781 3.48773438 -6.82101563 3.41296875 -5.98828125 3.3359375 C-5.06595703 3.26246094 -5.06595703 3.26246094 -4.125 3.1875 C-4.455 2.1975 -4.785 1.2075 -5.125 0.1875 C-2.125 -0.8125 -2.125 -0.8125 0 0 Z " fill="#EFF1F2" transform="translate(231.125,306.8125)"/>
<path d="M0 0 C0 0.99 0 1.98 0 3 C-8.42857143 5.28571429 -8.42857143 5.28571429 -13 5 C-12.67 4.01 -12.34 3.02 -12 2 C-10.0390625 1.26953125 -10.0390625 1.26953125 -7.625 0.8125 C-6.83351563 0.65394531 -6.04203125 0.49539063 -5.2265625 0.33203125 C-3 0 -3 0 0 0 Z " fill="#DDE1E3" transform="translate(357,721)"/>
<path d="M0 0 C0.66 0.33 1.32 0.66 2 1 C-1.3 4.3 -4.6 7.6 -8 11 C-8.99 10.67 -9.98 10.34 -11 10 C-7.50640535 6.40365256 -3.88901869 3.16548033 0 0 Z " fill="#EDF0F1" transform="translate(814,635)"/>
<path d="M0 0 C0.66 1.32 1.32 2.64 2 4 C1.34 4 0.68 4 0 4 C0.309375 5.11375 0.309375 5.11375 0.625 6.25 C1.04408751 9.32330841 0.61949011 10.42786866 -1 13 C-0.34 13 0.32 13 1 13 C1 13.66 1 14.32 1 15 C0.01 15 -0.98 15 -2 15 C-3.6112798 9.28728072 -2.08989546 5.31329355 0 0 Z " fill="#E5EAEA" transform="translate(513,415)"/>
<path d="M0 0 C5.28 0.33 10.56 0.66 16 1 C16 1.33 16 1.66 16 2 C8.97195301 2.85373239 2.07721931 3.12109311 -5 3 C-5 2.67 -5 2.34 -5 2 C-3.35 2 -1.7 2 0 2 C0 1.34 0 0.68 0 0 Z " fill="#063E41" transform="translate(343,337)"/>
<path d="M0 0 C0.66 0.33 1.32 0.66 2 1 C0.37660195 2.70884005 -1.29319053 4.37446717 -3 6 C-3.66 6 -4.32 6 -5 6 C-5.33 7.32 -5.66 8.64 -6 10 C-7.32 9.67 -8.64 9.34 -10 9 C-6.7 6.03 -3.4 3.06 0 0 Z " fill="#EC4545" transform="translate(720,452)"/>
<path d="M0 0 C0.66 0.99 1.32 1.98 2 3 C-2.62 3 -7.24 3 -12 3 C-7.09573904 -0.67819572 -5.86328807 -0.56741497 0 0 Z " fill="#204246" transform="translate(694,264)"/>
<path d="M0 0 C3.7952131 1.49097658 5.61042731 3.75700849 8 7 C5 7 5 7 2.3125 4.625 C0 2 0 2 0 0 Z " fill="#293E42" transform="translate(145,646)"/>
<path d="M0 0 C4.455 1.98 4.455 1.98 9 4 C7.02 4.99 7.02 4.99 5 6 C4.34 5.67 3.68 5.34 3 5 C3 4.34 3 3.68 3 3 C2.01 2.67 1.02 2.34 0 2 C0 1.34 0 0.68 0 0 Z " fill="#D9DFE0" transform="translate(583,660)"/>
<path d="M0 0 C3.28670403 3.28670403 5 7.35868331 5 12 C4.34 12 3.68 12 3 12 C2.49166409 10.75336669 1.99368855 9.50250613 1.5 8.25 C1.2215625 7.55390625 0.943125 6.8578125 0.65625 6.140625 C0 4 0 4 0 0 Z " fill="#0A3D42" transform="translate(492,435)"/>
<path d="M0 0 C0.78375 0.04125 1.5675 0.0825 2.375 0.125 C2.375 0.785 2.375 1.445 2.375 2.125 C3.365 2.125 4.355 2.125 5.375 2.125 C5.375 2.785 5.375 3.445 5.375 4.125 C2.075 3.465 -1.225 2.805 -4.625 2.125 C-2.625 0.125 -2.625 0.125 0 0 Z " fill="#DCE1E2" transform="translate(374.625,308.875)"/>
<path d="M0 0 C5.445 1.485 5.445 1.485 11 3 C10.67 3.66 10.34 4.32 10 5 C6.05140217 4.4359146 3.29120954 3.2568294 0 1 C0 0.67 0 0.34 0 0 Z " fill="#EAEDEF" transform="translate(761,279)"/>
<path d="M0 0 C3.36591866 1.44253657 5.51047079 3.33264727 8 6 C5.69 5.34 3.38 4.68 1 4 C0.67 2.68 0.34 1.36 0 0 Z " fill="#DC2D31" transform="translate(205,638)"/>
<path d="M0 0 C0.86625 0.3403125 0.86625 0.3403125 1.75 0.6875 C0.35804085 3.4714183 -1.40575779 3.66648997 -4.25 4.6875 C-4.91 4.0275 -5.57 3.3675 -6.25 2.6875 C-2.80384615 -0.38942308 -2.80384615 -0.38942308 0 0 Z " fill="#E6E8E8" transform="translate(677.25,465.3125)"/>
<path d="M0 0 C1.98 0 3.96 0 6 0 C1.375 4 1.375 4 -2 4 C-1.34 2.68 -0.68 1.36 0 0 Z " fill="#0C2425" transform="translate(383,419)"/>
<path d="M0 0 C0.66 0.66 1.32 1.32 2 2 C-0.97 3.32 -3.94 4.64 -7 6 C-7 4 -7 4 -5.75 2.4375 C-3.7852602 0.82360659 -2.52557477 0.24441046 0 0 Z " fill="#D7DCDE" transform="translate(178,325)"/>
<path d="M0 0 C0.66 0.33 1.32 0.66 2 1 C-0.97 3.475 -0.97 3.475 -4 6 C-4.66 5.67 -5.32 5.34 -6 5 C-3.375 1.125 -3.375 1.125 0 0 Z " fill="#102528" transform="translate(443,676)"/>
<path d="M0 0 C2.1519437 3.22791555 2.20086443 4.28400809 2 8 C1.01 8 0.02 8 -1 8 C-0.67 5.36 -0.34 2.72 0 0 Z " fill="#E0E4E3" transform="translate(524,520)"/>
<path d="M0 0 C2.01822917 0.06510417 4.03645833 0.13020833 6.0546875 0.1953125 C4.9921875 1.7578125 4.9921875 1.7578125 3.0546875 3.1953125 C-0.6328125 2.8828125 -0.6328125 2.8828125 -3.9453125 2.1953125 C-1.9453125 0.1953125 -1.9453125 0.1953125 0 0 Z " fill="#DADFE1" transform="translate(661.9453125,261.8046875)"/>
<path d="" fill="#FEFEFD" transform="translate(0,0)"/>
<path d="" fill="#FEFEFE" transform="translate(0,0)"/>
<path d="" fill="#FEFEFD" transform="translate(0,0)"/>
<path d="" fill="#FEFEFD" transform="translate(0,0)"/>
<path d="" fill="#FEFEFE" transform="translate(0,0)"/>
<path d="" fill="#FEFDFD" transform="translate(0,0)"/>
</svg>
